<mxfile host="app.diagrams.net" modified="2024-02-22T12:15:03.111Z" agent="Mozilla/5.0 (Windows NT 10.0; Win64; x64) AppleWebKit/537.36 (KHTML, like Gecko) Chrome/121.0.0.0 Safari/537.36" etag="M_qC2sgxnyGrxLmk1ar8" version="23.1.4" type="device" pages="2">
  <diagram name="templates" id="v0-LwpPHnJmFXC44pMrE">
    <mxGraphModel dx="1434" dy="746" grid="1" gridSize="10" guides="1" tooltips="1" connect="1" arrows="1" fold="1" page="1" pageScale="1" pageWidth="827" pageHeight="1169" math="0" shadow="0">
      <root>
        <mxCell id="0" />
        <mxCell id="1" parent="0" />
        <mxCell id="NQG3vtU-WxNMfQbi0KK1-60" value="" style="rounded=0;whiteSpace=wrap;html=1;strokeColor=#808080;" vertex="1" parent="1">
          <mxGeometry x="980" y="100" width="670" height="620" as="geometry" />
        </mxCell>
        <mxCell id="oH9SZKmKfnMoE6zpDoue-7" value="" style="rounded=1;whiteSpace=wrap;html=1;" vertex="1" parent="1">
          <mxGeometry x="1220" y="110" width="140" height="60" as="geometry" />
        </mxCell>
        <mxCell id="NQG3vtU-WxNMfQbi0KK1-23" value="" style="html=1;verticalLabelPosition=bottom;labelBackgroundColor=#ffffff;verticalAlign=top;shadow=0;dashed=0;strokeWidth=1;shape=mxgraph.ios7.misc.ipad10inch;strokeColor=#c0c0c0;" vertex="1" parent="1">
          <mxGeometry x="414" y="100" width="488" height="650" as="geometry" />
        </mxCell>
        <mxCell id="Xk4R5OKgyP4fH4Gsy3Mk-1" value="" style="shape=image;verticalLabelPosition=bottom;labelBackgroundColor=default;verticalAlign=top;aspect=fixed;imageAspect=0;image=data:image/png,iVBORw0KGgoAAAANSUhEUgAAAJQAAAEjCAYAAADUhCitAAAgAElEQVR4Ae2decwdVfnHXxBKy15aBBQoIC1VWhERkLJDFWRzZREhIQoCKhgNGgUT1BDX6B8aQwxqTEj8Q42oEI2KGhGoaaGLAi1i2SEgUAi2BUQ9v3wOv+/0udO7zMy9s937THLec2bmLM95ns8858yZeedOhYzb//73v5jzP//5TyBN+O9//5scI/3yyy+H5557Ljz88MNhzZo14a677gp//etfY/jb3/4WmhwkJ/GqVat6hpUrVwaCzaOyTe4fsiEn8erVq8ODDz4Y1q1bF/79738H2RQbKsjGijG00sTajwnzZ8qkuyZVCScFkBpFENII96tf/Sp885vfDJdddll43/veF4477rjw1re+NbzlLW+J4bDDDguEQw89NDmmc3XEyGFDVhkOOeSQoGDLNKVfVqZuaeQ85phjwnve855w6aWXhq997Wvhl7/8ZbjvvvuiQ8ApYHPZGLuLAR1Ln7fgDARKIKlSIKJRyF62bFm46qqrwuLFi8P+++8ftttuu7DllluGV73qVTFWequttkr2SXO+CQFZbCgqk+ooWr7KctiEgMzE06dPD/vss0849thjw6c+9alw6623hpdeeilCJIeB7QWajhF323IBpUrxSB/72MciRDNmzIjCoZSpqamwxRZbxICwShNzjpA+bvN4+hXdlaUHdE+wdqItbEeMQ5gzZ04477zz4tAISIAjZ4KHUlqQpaHKBJQqhtxf/OIXYe+99w5bb711DJAumASLhLYQSWgdyxqXpdy212v1p77YY73S2EH2kk0oL5txDJu+5jWvCdddd13YuHFjHI0YkeBAUAES++ktE1BU8vjjj4crrrgi8T4SygqCYBznmA3qcJa4lyL8+Cse3uohiz7TeWQXHALnbH2AxD42JDAcMs9au3ZtB0zdQBJYmwFlM4tI7mje+973JkMbjUkYBCRNrOPE2lfMMR3nWL9glWA7XHY6T7tZ8pIHmRUPK7+th7R0KN0Sa26kc+nYjii2DsnGMYKt6x3veEdYvnx54p3gwnIimIg7gFJGYk2+gOmMM84IzJVoxCpIAkE7gnN+++23D/Pnzw9ve9vbIoTnnHNOILz//e8P5557boy1b8+R5vxpp50Wdtlll9gpdU6xOj2qWPWqH8ivY73a4Dzn6K/KqYzO6Th5lLdXfYOOq27yKa341FNP7dDn2WefHXUtvXaLuQPnJurAAw+MthJwvUBEJ4Sjjjoq3H777cndn1ixMHUAxbAmiJT5oYceigICkxRoXaU9tt9++4XLL788/OxnP4s0//3vfw+PPPJIHCofe+yxGDNsPvroo0mafQXyEP70pz+FN73pTfFKQ4l0RoYZpPy85zEMZVAm6Z122inMnj07Ag3U3cLMmTNjnlmzZsXzO++8c5xLWhlJ25sVtZNXvm75BRPxbbfdFnUmPaNbq2vp1sbk+cc//hHX0m666abw6U9/OjoAzYllX9sOafpz4oknxnKwQui2RQ8FQLqDI01mJuA0Nm3atGhQlITi1Uk1yJ3BZz7zmQjPCy+80EEwdRAAVUsNCMG+goTjPIHFUNZPaM8GtTuqGPmtR/rqV78aYecOlgupV2DRlnMYBUOy/6UvfaljyYSrmdvvn/zkJ0kbReRGRpVDF9I5x0gzt0F/6JJJ84svvhj1TbpXwB6yNeWYdNPnL3/5y/ECoW6NOGpfbcMCd4BA2xcojCyvpIzQu8022yQKQfnqHGBtu+220Q0ytgpCBEVI6uCY3VR/+pj2VQfGYuFNnZAS1TnJMIpYwOKVnnnmmUQHkqlfjLz0lQ1vvPvuu8cLDqWznoNxucAWLFjQcSHmkVt9li4oSxpb4D2tzNK34n6yYx8LFf2g3N133x0vZryRbZt22addPPL3vve9xFGk20nmUDRCoHJc5Otf//qkUlWuSpknfeADH0hm/1AviBCMwD6b6tVx4l4b5zDChz70ocQz0qbaz2OMLHlt3ddcc030KngW5gq9AsOMzpEmXH311WGHHXaIcmJwPNQNN9wQfvjDH8YLbxj5rYy6ADjGXNPqNGs6fcGrnI4///zz4cMf/nAEViBLfrV/0EEHxUdP2JHydkuA4iDGh9wrr7wyIZLKVDExnonJM1cl+UW3KpeAAkr7Oq9Yx61AOsY8jCtQHVCHskCSJ4/tG1flXnvtFdfYWGcj3S2w8EdQnj333DOBRnLiwXfdddeOSW8eubrlpW4CXoIL+sYbb+y4cKVX4l6b9Ets7aP8Ov/UU0/F+bAuEvVLMXbhCYnyE2tLgFIjPDycN29eMtTZSujMokWL4oNfBJJQqqxXbBvslUfHqZMHzJdcckkcYmmTYJUsmThm0zZPlrTKEgveQTGykEexylpZOKaQRY4sedQObX/wgx+Mc588epV+iW25dJp9bMD8jDtCO0mnbfWLhU+7PqX6E6AECJNTJtrMBVSYmE5z5f3xj3+MXgzPNOpNnUEWrhJugzGclEkaGYhl0EEAZDmv+oaJbTu2Hns8b5p+6+5LOmA9kBsCdGVhGLUtmNTffPPN8Q4QnSO7LhrSyMNQL5tJng6gnnjiibh+RGZbiRTB8zsK0lhZG/Vrwkg7X/nKV+JtOvIglw3qmD02jmn6zmSYu25sJOOVZQPVix24wcC5ADZAiQX0zLDPnIsNJ4BcHUD9/ve/T4iUG5aBdtttt+TKsBWo8VHFCMWGBwQoYq7I7373u+ETn/hEdPc8DmBIZPJIIJ03XHzxxaFf6FUfZdLnutVDHns8XSbLPuVZ2/vWt74V7rnnnmS+WsbokLYfbRB49+u1r31tMiKkufjDH/4QYZJMHUBde+21yWQYkCyRF1xwQbwVFokyfFqQYfd19dl2lCZWoAPkVZy3XbWjOG/5KvJLNhmLWLoou33api281Pnnnx9ZYCiHCdhQ+gtf+EJiE2SaktAscOFSNdQJKGLc3fXXXx+Npw5RrqxNMqlTigWT9m08rCzUZUOv+mwepXvlHfa46qffgol0FRttq00WaAURsdLAxZzOToESoJ588smERMZJkUh6jz32CHfccUfiEegQDZaxSYnUrStT7XFOQNtjZcjRhDqtju3FZI+XJafVNSvp3KgBkuatYoSnGs8++2xilzjkYbgHHnggnH766dGVUdAOdxTiFVHyqaGyOuL1NkMD2FkBu8+dOzdxMtbZcBx2yMsWgWKcvPfee+Mdnu6mbKETTjghPu+Ru1XhZnTdpShDA7KxbM7/A+CV5KE09PFSAP/0oJEj8VA8x+G9YgGlAlTAMj8PQe0QVEYnvM7maMACBSywYYc8pXkffcWKFZsDxW0p/6nC7N3CBFAMhTxZt5Ov5nTdJcmjAYGSpQx5gYnAA3tBxOhFgBUeQ915552dQDHkAdTxxx/fUQiYKHTKKadEoMjn22RoAJgIGpWOPPLIONxpuUBA4aH6AqUxkgKkCWmg8lA+Geofr17KM9ErvBMbz3DloTSCMT2ShxKAm82h9DAQoFQBQ56dQzlQ4wVQt95oqBNQdsgTFxrytKRE3gQoZuoMeWSigAWKd5eZQ8n9dRPAj42fBqyn4h0vgSQ+BNRmQx6gOFDjB8SwPSoFKCh0DzWsadpZvjSgWIdiyPO7vHaCUVTqSoCiEW02rWMej48GSgGKZQOGPO7y8FCCiFjp8VGh98RqoHSgWCkXSIqtAJ4eLw2UDpQ8lNYoaNC35mlAF/uw9ikdKP0XMECx1ODrUs2DCYksCMNIaOsZ+ToU/9EroAAJb+V3fcOYq7yy8kyKi7ZUGlA8y+OtPQeqqGnaWa40oLjLw0MxKdeznXaqyKXOo4FSgdKyQR6BPG+7NVAIKAoxF+KNzfQLdnoYaFfKye/bZGigEFAMYRYovQKsF6j0PpSGvLJU6aCWpdni9RYCikLctfGhL75QBkD21RUA4xuL999/f/xHz+Li9S+JHA5Vfx1VfbYwUHioW265JRx88MHxfSgg0ntR8lD8q8yGDRtKfa/cgaoamf7tFQZKH8kAIuuh2CewbCCg+DKbb5OhgcJAMT/ad999I0x6Gw+wCBYoYCrzP1/cQzUL1EJAMSkHKP5hD4B0Z8c8in2GP61DMTSWaXTqLrP+Zpmr+dIUAopCrILjoYCJgFcSUKTf+c53xi/klumdUK/DlB+yMheaCwOFh3rd616XeCgNe3gnfp6BL2zwKWEHKr/Byyqhi09xGe0UBgoPxT/syTtp7kTMVzfOOuusBKgy3zAoUzllKLzOOqvQ1VBA4aHwSHYexafwdtxxx/itS77Az6Tc7/LqxGhT240FCo/DkoC+/MucSXMpPnwPUPJQfEOcD5P51gwNlDl/ooeFPBR3bnxx98ILL4y/nABM8lR4KH7/REDx+gpQ+dYMDTQWKCbb/Pcn/24smLRkwNdnzzzzzDiHAj6GPIeqGUBllcJ6mqxlyGfLZX5jU5DwwXv+FZ1vG2geRZqv9stDMTxyVeCpfKtXA2V7p6GB4vWVk08+Of5mCXd2zJ8AimUD66HUUL3q9Nar0EAhDwXpeCk+ich7T/weHMMccycm5Py2y7ve9a64sImHohGCb/VqoLEeCrUAypo1ayJQ/LAgUAETYBG/+93vTt4pr1eN3nqVGijkoSxQJ510UgISHgqw+FUofkSG96FYMgA+gm/jr4HCQHGXxwt2egWY+RM/bQVQBOZQPJ5Zv359hMrv8sYfJno4FFB8yRWgtGygRU08FL8KxUo5Hoplg7Lu8nxu1ixQCwHF5A4Pxc+WvfnNb07e1GTFnDs8gNKyAZ4JoMp+SNwstdYvjS40xVVJlBUoPokIR4T40xzr1q0LF110UbyzAyStQ7FSzsTcAoV34q7Qt+o0gGGtcatq2bbZa2GTlwoEFPnjNzb5mBi/I6vhTq+vMOxppVwPh4HJJ+XVmFQg0RrpqrcsQPEeHT9kDhPRQyEk/8QJUKyK45XwUnrTgEk5HgqgGPIcqGrNWgdI6mEWoPgRxqVLl0bgyR+HPDzUwoULk7s65k2sPxHzE/QARR4m5cyffMiTyquJ6xoRsgDFkIeHIi9cTAGIhjyGNyAi1pIBywcsbLJs4OtQ1QCkVjBSnVsWoPjl+D//+c+bhjwgYdFywYIFESRgYlGTGJi40+ORDG91coen2XydHfW2R6cBoFFI1zoIKG7emCZ9/OMfT75jP8U/b/Icjzc2mTfNmDEjPhgmzcNh5lP6nA9A4X5pyLfJ0AAOhM3e5fEPLApAdcABB4Tf/e53cTo0BSR4KA5quYCYAnrHnH+j0vehaMCBmgyY6OUgoFgZ4E7vxhtvfGUOBRy6y+PNAjySAkABl/4vjzUoB2pyYKKnuiHo5aFghdHtpptuegUoCgHUG9/4xjgeQpzcmQM1WfD0620voOShAAr4koVNlg1YyIQ4LWxaoICOO0I8mg95/VRfz7kybULdAsrygeNhn/86T4Y8ug8sdg4loBjuNOSRh3WGMgWvxxTe6iANZAEqGfKAhH+jgjJAEkzQB0y4NOZQrFU5UINUX/y8LlTFeWoqUiZv/fJQMKEpkTwUk/JkyGMYW7t2bfKxDAoIKmJ5KAcqjwny5y0bivwSbSrBjVguoFg2gDLBJE/lQG1SapmpojAVLZe3LwDFbw6Lh74eSkOeBYoCgso9VF71589fFRj5JXulBHdvFijYEFRMyjuGvF5ACSoHqqgZspdrG1CCibgrUKyCszglr2RjCvikPDsc45gz1xwKd8aSwBve8IZkDUoujdiBGkdE8vfp6KOPjnNsRqy+HgqgeJ533XXXhVe/+tUJVBSicHrIyy+Kl2i7BuwcCgcjh9N1yCMzQb+kIAI17DlQbcdhePlzAcX4yFoUH8vQ/+WJQGIHaniDtL0GCxQ8iI+uHgqgeIuAf/Tk6yusjKsAhdNzqLYrx+XPr4Fc61BkZumAIQ+ggAjygErB3uXlF8dL9NNA05cMkB1GMq+U0yEKrFy5Mi5epWFyD9UPh8k4J6BwNnI4cNJ1yAOop59+On4QI12AfbyUe6jJAKdXLwUULKSB6vo+VPqXFESfKnCgeqk6/3GMw0XchqFOvUNW1qHEg/gg5v8OeFOFtw24uYsv2DlQUl25sYWJdFu2QUDpWV4HUOmHw9AnIt1DDW96jCKg2gQTPe8FFHww5MlDcXOXeCiAIgNBLs2BGh6kdA0YB8W3aRsE1OLFi8Pq1avjBeNAVWRZjEJgGxcPxQSdbxssWbIk6ZsDVSFQGvIqanJkzXTzUBq95syZE5YtWxYvElbUHaiRqX1wRU0GCtkknzwpsY6lFzYtUPxoAjCR34EazMFQOdLGwUBN3AQO8qZlRl4LlObZLHrjoQBK5R2oEq0r49i4xOaGqloy2ko4pgvAgbKaqSEtAymWYWoQJVOTyJneHKi0RmrcF0iKmw5UN1U5UN20UsMxQSSDABOT1rZtkh+5fciryXqCCYgU2ggT6hsZUMziFfz1lexkApAFCpAUstfSnJxDAaVvG+ixi15dIfZnedmM3A2mbCWbmWtooIAHjySotHjlQGU3OEbAK7XteV23HhYCikK8vsLDYWCynknDngPVTd2bjqFDBc2bNp1tb6owUI8//ng4/PDDO35JQd7Jh7zBQAgmYrwTUI3DVhgoPi39/e9/f7NP+mgIdA/VHw8LVP+c7TpbGCiuKP6N6thjj03+jUrDnXuo/hCMK0z0uhBQFMRN84JU+v/yNOy5h+oNlYDqnaO9Z0YCFBNzQPJXgLOBgNLHdXOgxtWyNfXLgapJ8eParAM1rpatqV8OVE2KH9dmHahxtWxN/XKgalL8uDbrQI2rZWvqlwNVk+LHtVkHalwtW1O/HKiaFD+uzTpQ42rZmvrlQNWk+CY1CwSj2hyoUWmyQfVgVBuqFM2BqlLbFbUlmCpqrqMZB6pDHb4zrAYcqGE16OU7NOBAdajDd4bVgAM1rAa9fIcGHKgOdfjOsBpwoIbVYAnlMUpbNweqYZZr84cyUKUD1SCg+LaBQoPEyiWKA5VLXeVm5mcq2r45UG23YMPkd6AaZpC2i+NAtd2CDZPfgWqYQYYVB4PWuTlQdWp/DNt2oMbQqHV2aWKAqnsoqNPIVbY9MUBVqdRJbsuBmmTrl9D3sQaKzhF8q04DDlR1up6IlsYaqImwYMM66UA1zCBtF8eBarsFGya/A9UwgwwSB4M1eRs7oJqu8CIw6CfQ2vCbMGMBFJ1QKGKwJpfRBdKW/iGnfrcm1y962l9SqPPD91K07UiTARl32awdWgfUpMCkfgpG9pu6tRYoKVmx3GxTFZ1XLv5Zocng9OrPWAA1bjD1AkkXTy9jNuF4K4GSYq3wdSuTOeWoNvUvXV+v4+l8de5bm7RmDtU0xY7qdr5p/SoCZuuAktKJm7CNCqYm9GUUMjhQI9BiU+AeQVeGrqK1QA3dc6+gFA04UKWodXIrbSVQk2uu5vfcgWq+jVolYeuAapV2J1BYB2oCjV5mlx2oMrU7gXU7UBNo9DK7PJFAvfTSS2XqdKLrnjiggGkcPj3YVGpbDRTC59nIz1sBDlQereXL22qg8nX1ldw8zOXlNd/K0cDEASUvVY46vdaJAkowjfJlOEeoUwMTARQAqaMMdw5UJwSj3JOeqbM1b2zmVQAA6UU4pfPW4fmzaWAigBJMium0b+VoYOyBooPpAFi+laOBiQSKTvtWjgbGHqhy1Oa19tLARAPlnqoXFsWPTzRQPpcqDk6vkg5UL8348UIamFigfLgrxMvAQg7UQBV5hjwacKAyasvnW9kU5UBl01Pymb+M2Sc228QCldfiKIrgW38NOFD99ZOcdaASVfRN5AWKqcQUNfLUfvXq1eH4448PdX60tW/vRnDSvVI+JTpQA/TlnmmAglKnJwYo9zQpy5e0O/ZA2Q4yXjtYJZH0/9VafQ96Y1MvO7ZqDkUH9V8udMCBcqCG1oA8ky9ODq3KgRWMvYeSBhwqaaLcOC9QjBqtGfLonB3ibLpctU5u7VmBuuOOO+JUpFVAyawCy4GSRsqL8wLF/LZVHqo81XnN3TSQFahly5bFb0zwnYnWAEWHNXfq1nk/NnoN5AEK79QqDyV1OVTSRPmxgCLutw7VSg9FpxTKV6W3gAbQt9b7BgGlb3W1bshzU5evAV24jAYC6sgjjwxbbLFF2HLLLWM8NTUVXySYM2dOwEMx3JG/NUDRSV015at08loQRDbuBxRwbbXVVmG//fYLy5cvT0aP1gA1eSauv8dZgJo/f35YtWpV8gGTxgPlnqk+sBjudPdmhzwNe9ttt11YuHBhWLlyZQSqsQubcrv1qdJblgYE1KJFi+L8SS9gAtXMmTPDggULIlDke+GFF9ozh1IHPa5WAyxW4nkEFCARtt5667DLLrtED7VixYrw4osvho0bNzYLqLRn0nBXrQq9NasBgML7HHHEEfGujom4gMJDMeQJqA0bNjQLKDoiiNJw2U56upgGpNs8pZmYAxRzqBkzZgTmTQx7QDV79uw45DEpJ0/0UDTCTtP+SaFI5/MoatLyFr1AVe6EE04IO+20U5w3bbvtthEq9plD6S4vPssTUPfcc0+j/uvFgRot8kX1iYdiO+mkkyJMDHPbb799XIOaNm1aOPDAA5O7PNqYkktrClBFOz5a9Y9Xbei0qF4tUDvvvHP0UoDEkMfQN2/evDiHUhsRKFyVAzVeEKk3MrTA0PGssUDEQwHUjjvuGLbZZpsEqH322Sc+eqF+8k5xS9gkoLJ21PNl08CwQAlEAcVSwQ477JBAxbO8JUuWxGWDuLApoO6+++5w3HHHRTfGcxoe/ulh4KmnnhoeeeSROHnP1g3P1RQNCKii8sAHdbz97W+P3ok5FJ4KqJicA9Rtt90W1q9fH6GKHopXDxyooipvdrlhgWLBkhVwnA0QCSjd8c2dOzcOeYxy8S4PAh2oZkNRVDrBpGGrSD0sVhJYh5o+fXqclOOhCAx/m93l0SjrUG30UMjuW28NjAIovBNeCqC4q2NCzsQcoPBWdh2K9qb4g6u66667fA7V2zatPCOghhFecygWNoGJRy/ErEXNmjUrPnrRwiZ547IBBDpQw6i9mWUBathNw+XJJ5+cLBno5To8lYY8YGKki5NygGrjkDesssa5/Ci8E/oBFDaWDZiIMzHHS7EKwBsHvLHZ8U8KUOWT8vFCSzCNwkNpyBNQQMVKOV4KoFg2WLp06ab/y6MAcyg81Lh/wW68sOneGwvTKIDiDg8+tLDJRJw5lIY9VsodqO62aP3RNEyjAooRjDmUlgsEVNpD4ZxqefRCR/Xsp/VWbFAHLFCaTA8rHvNr6mKlHKCYiGsORWz/jSoCRWbmUVU/HFbns3Z4FFdb1rbamk8XKjbFuKPYVA8eivkTj1t408D+X17H11fqACovTCjGgRoFHvnqgA3pnTkUb2syzDF/IgAWHgqgAI/8cWETD1X1G5sSNF8XPXeVGsBGQMLGwiYwAdFAoKCryUA5fFVitKktAUV89NFHJ15JQPEoxnoo8kUPVTVQon6T6J5qqgZggxGs38cyNOTVBlRe5SGob/VogCUD1qHSHopJeXoOFYFCzKo9VD2q8VaLaACYGFHsv6Iz5Nm7vDvvvDPmcaCKaHjCyjDcOVAtNDpXdxOHdkYv5HIP1SKomgoTKnSgWgQSojYZJgtUv7s8n0M1CLo2AIW6HKgGQdNLFGBq+qY1w8YA1fQrsE6DOlAvv5xZ/1KWCM9c0DPWrgE5AWLZr3YPJaFq144LkEsDspvixgBFLyRMrh555to0IIiI2Yhlw9o9VG1a8YYLacDCNDZAqSOFNOKFCmsgDZPsQNxqD6WOFNZMQwvKYE0Ur59srQeqiQofRiYZi7iJ2yD5HKiGWG2QoZogppWRdLfNgeqmlQqPpY3Uy1AVirRZU8yJrJybZTAHHCijjDqS1lBthwn9OVB1UPT/bTYdJgEiObOoyoHKoqUS8shIiktoYiRVSj7iLBv5Wr1skKWTTcyT11B19SErSJLPgZImKo4FVMXN5m6uFUDlFTK3FhpeoC0woca8tiJ/5UNeXiEbzsfYilfETrUAldcCRTqWtw3PPxoNVA5UXjjy5h+NWsqpZZz60ktDlQPVS5BxPo6SJwEmbOhAlUzyJMHUeKDaflVPGkytAKqNUAmkNso+rMOmz5UvGwwrdNPLO1CvfMHO3ykfAakWJl2pw1bLj/G0ZXMPNSJLpUECJgfqqI5PIvr3oXLA1g0ovkIy7EYdbfJQ9FcXUu4hT98p1zeo7Yc5+YnYhx9+OH4ab1iltqW8hQoQRgFU3r6rXWIMi0xVbLYdpdNAwQcfbeWnOZYvX5589mcKAfXhez4drM8G49JU6LTTTpsooASThjoZtgpj2jYEkmCSXDZPGWlBRN3dPBRsEPRLCny0VTJuBhTUWS9FGqD4EWs+4GkbK6MzTahThqsbKLUvearWPe0JFDwULKQdDh6K70MJ/ggUO2vWrAknnnhix6+iq4LFixeHBx98sBa3Xwdg1oAoFP3gxave0kBV3b70QLuHHXZYZAMm5KFwPvxeHj/eqbwJUA888EA4/fTTYyEVoDCFDj300HDfffclharuWNXtSTnEdQGVhglZqt7UJrIccMAByRRIfDDk7b///uH+++9PPFkC1JNPPhnOP//8ZLiTayPec8894+95SMFVd6zq9uin+loHUBo+JAdxFZvaU1tql+kOPxzEnFpcABX7hxxySFi3bl0nUCjtX//6V/jkJz+Z/DiMClKI30f78Y9/HJVch+tXB6uKpVh5iaqHPNqVDDJqFX1Xu2pL+z//+c+T75LDhWAiPuOMM+J0QHJGD8UOoHznO9+Jv4nGMIc7s0RefPHFcVKOctmYoD/zzDNJZXUoQB0fday+1AWU2lc86v51q8+2RZqNGHtfeOGFESI5GUCCEfi46qqrEm9OmQQovpj/61//OsybNy+BiQIKe+21V3jooYcS1yZ6pXQq0zEJFKVq4SXACZMAAAWcSURBVB8pl5g+oVRdSGV1R3q0bZfVVq961V/JQD7mznvvvXcy1IkHYsD67W9/G3Uk20egKEgljJXHHHNM4pkoQBCZn/3sZ2M+4FOjVtFUyqY47rTwj/pGLEPbfo66S2rDtjvqNgbVp76ST3Ig1+c///kwffr06GTEATCR3n333cNzzz0XdaQyCVCC4Oqrrw4zZsyIUOHWVAlpfmL9L3/5S2yQIZJKJIDKq+JBHWjyefVBMX0bNVDojzqpm6C2FNehH9qWLMi3ZMmSsGDBguTOX95JTFxxxRVRbpWhfAKUKmPVk7UF5lDyUMQaM/ntWdakbCWkCWx1KmSURlA/pBf1b1RtNBEm9RXZHn300XDBBRdE76ThTTFA7brrrvE3FqUn6WUzoBjOLr/88ggTEAkquTl+c5YJuhY6VaGNR618CVt1nO4TilbgCibYvpIf/XHDovOKVY6YMgRbP+m6N2RDjmeffTZ87nOfC7Nnz068kxyKvNNll13WtR8dQKmDLFTtu+++yYTckkmaNYmPfOQjcc6FECiRTeWtsqySmqA0K0+WtO0T/RIYAoVjduO8ztk0+WxQvXXpJN0u+8jHr6BfeeWVYdasWcmoBEQKgDV//vywbNmy5A7f9r8rUFT805/+NJlHCSi8FWkqxVOxss4KO8KgRP1YH+W1keacOmDPKU/TY2SXwi0k9It92yfyKQ+xAnkIqktxlX1Pt4k8Vj6GOd4sYRKOnWVrYv14NXb/xje+EV/Dob701gEUlavTGzZsCJdeemmcoDOfglCAomLNqTiGW7z22mvjmpQeHhMTpEQJrfrtftPT8jbEeGLFGtroJ8escXSOq53z7CvY+urqu+QFCOR76qmnwg9+8IP4RARnoSCby5FMmzYtnHnmmfHNE/qG/OktAUog2Xjt2rXhlFNOiSvlagRaaYhYoLF/0EEHhWuuuSbcfPPNgXerHnvssSgoi5/pwFJ9W0Ja9qeffjr2CyMQ/vnPf8ZY/SG/zUPaBtWn/FXGtI3MLA/xMsAtt9wSvv71r4dFixZFG2sxG9sSAAnbEjhHvttvvz1ePIAEK+ktAQpadZWRiX2uKpYJeE+Kxy9ARSMiVg0Tcw7vxez/8MMPD2effXZcYWWuhae75JJLYky6rUF9IE6Hj370o4GgvqbPa7/uvl900UXhrLPOir8utdtuuyXOQU6C2NpXMB188MGbLWIOHPIEEhkVgIr1CF5hgVJRnG6UhoFKMfnYBzaOEShDbEFsW7qb/Byjr+q/7XO3/HX1GVkUZBvJ2k0m5cUz3XrrrdHhiAvFPT1U+gQFBBhjLssEvI1Aw1KclCW4tC/h0vvKR9zWQN/UD/Wz27491pS+Sl7ZBblIW/msbUnjzZjCwIOmQ0qnmWE/GfK6ndQxTR6p8Nvf/naYOXNmFIQhzgokZUtA9u15Hfe43gtKYGEHm8aeGoGw8Re/+MW4JmVBEhO94oFAybVRqe5QVq1aFc4999x4V8AtphUEgBQkrMAitp2w5z296UF81brAXngj7uL22GOPuHTAhF2eSAz0gsgeHwgUmVUhUCk8//zz4Te/+U2chB5xxBFRECbuCKf5E0IqWJgEnMebLr4qdCFb0JbS2IrJOa/48gTkhhtuCOvXr09u0LB9ni03UKJWYLEegcf60Y9+FHiwfN5558V30xcuXBhXVOfOnRsUeF2UNLGH6nWA7nk9iSUe7tzPOeecwBsk119/fXwjd+PGjcmamuxbCVDWYzG/4k6QGIGeeOKJcO+994YVK1bE5XmWHZYuXeqhQTrANtiItUIWsO0cWbZVDFh5tkweigqZP4lWNaaGtI9g5LMxeTiPYFZwXQEeb5pGVKkLOQHZFDvRvmwlWex52btfnBkoVUxs01YQNaTzdj99TOc8rl4D1hakBZI9XlSq/wNxBKSQv1vWbAAAAABJRU5ErkJggg==;" vertex="1" parent="1">
          <mxGeometry x="30" y="789" width="193.26" height="380" as="geometry" />
        </mxCell>
        <mxCell id="NQG3vtU-WxNMfQbi0KK1-1" value="" style="shape=image;verticalLabelPosition=bottom;labelBackgroundColor=default;verticalAlign=top;aspect=fixed;imageAspect=0;image=data:image/png,iVBORw0KGgoAAAANSUhEUgAAAJQAAAEjCAYAAADUhCitAAAgAElEQVR4Ae2decwdVfnHXxBKy15aBBQoIC1VWhERkLJDFWRzZREhIQoCKhgNGgUT1BDX6B8aQwxqTEj8Q42oEI2KGhGoaaGLAi1i2SEgUAi2BUQ9v3wOv+/0udO7zMy9s937THLec2bmLM95ns8858yZeedOhYzb//73v5jzP//5TyBN+O9//5scI/3yyy+H5557Ljz88MNhzZo14a677gp//etfY/jb3/4WmhwkJ/GqVat6hpUrVwaCzaOyTe4fsiEn8erVq8ODDz4Y1q1bF/79738H2RQbKsjGijG00sTajwnzZ8qkuyZVCScFkBpFENII96tf/Sp885vfDJdddll43/veF4477rjw1re+NbzlLW+J4bDDDguEQw89NDmmc3XEyGFDVhkOOeSQoGDLNKVfVqZuaeQ85phjwnve855w6aWXhq997Wvhl7/8ZbjvvvuiQ8ApYHPZGLuLAR1Ln7fgDARKIKlSIKJRyF62bFm46qqrwuLFi8P+++8ftttuu7DllluGV73qVTFWequttkr2SXO+CQFZbCgqk+ooWr7KctiEgMzE06dPD/vss0849thjw6c+9alw6623hpdeeilCJIeB7QWajhF323IBpUrxSB/72MciRDNmzIjCoZSpqamwxRZbxICwShNzjpA+bvN4+hXdlaUHdE+wdqItbEeMQ5gzZ04477zz4tAISIAjZ4KHUlqQpaHKBJQqhtxf/OIXYe+99w5bb711DJAumASLhLYQSWgdyxqXpdy212v1p77YY73S2EH2kk0oL5txDJu+5jWvCdddd13YuHFjHI0YkeBAUAES++ktE1BU8vjjj4crrrgi8T4SygqCYBznmA3qcJa4lyL8+Cse3uohiz7TeWQXHALnbH2AxD42JDAcMs9au3ZtB0zdQBJYmwFlM4tI7mje+973JkMbjUkYBCRNrOPE2lfMMR3nWL9glWA7XHY6T7tZ8pIHmRUPK7+th7R0KN0Sa26kc+nYjii2DsnGMYKt6x3veEdYvnx54p3gwnIimIg7gFJGYk2+gOmMM84IzJVoxCpIAkE7gnN+++23D/Pnzw9ve9vbIoTnnHNOILz//e8P5557boy1b8+R5vxpp50Wdtlll9gpdU6xOj2qWPWqH8ivY73a4Dzn6K/KqYzO6Th5lLdXfYOOq27yKa341FNP7dDn2WefHXUtvXaLuQPnJurAAw+MthJwvUBEJ4Sjjjoq3H777cndn1ixMHUAxbAmiJT5oYceigICkxRoXaU9tt9++4XLL788/OxnP4s0//3vfw+PPPJIHCofe+yxGDNsPvroo0mafQXyEP70pz+FN73pTfFKQ4l0RoYZpPy85zEMZVAm6Z122inMnj07Ag3U3cLMmTNjnlmzZsXzO++8c5xLWhlJ25sVtZNXvm75BRPxbbfdFnUmPaNbq2vp1sbk+cc//hHX0m666abw6U9/OjoAzYllX9sOafpz4oknxnKwQui2RQ8FQLqDI01mJuA0Nm3atGhQlITi1Uk1yJ3BZz7zmQjPCy+80EEwdRAAVUsNCMG+goTjPIHFUNZPaM8GtTuqGPmtR/rqV78aYecOlgupV2DRlnMYBUOy/6UvfaljyYSrmdvvn/zkJ0kbReRGRpVDF9I5x0gzt0F/6JJJ84svvhj1TbpXwB6yNeWYdNPnL3/5y/ECoW6NOGpfbcMCd4BA2xcojCyvpIzQu8022yQKQfnqHGBtu+220Q0ytgpCBEVI6uCY3VR/+pj2VQfGYuFNnZAS1TnJMIpYwOKVnnnmmUQHkqlfjLz0lQ1vvPvuu8cLDqWznoNxucAWLFjQcSHmkVt9li4oSxpb4D2tzNK34n6yYx8LFf2g3N133x0vZryRbZt22addPPL3vve9xFGk20nmUDRCoHJc5Otf//qkUlWuSpknfeADH0hm/1AviBCMwD6b6tVx4l4b5zDChz70ocQz0qbaz2OMLHlt3ddcc030KngW5gq9AsOMzpEmXH311WGHHXaIcmJwPNQNN9wQfvjDH8YLbxj5rYy6ADjGXNPqNGs6fcGrnI4///zz4cMf/nAEViBLfrV/0EEHxUdP2JHydkuA4iDGh9wrr7wyIZLKVDExnonJM1cl+UW3KpeAAkr7Oq9Yx61AOsY8jCtQHVCHskCSJ4/tG1flXnvtFdfYWGcj3S2w8EdQnj333DOBRnLiwXfdddeOSW8eubrlpW4CXoIL+sYbb+y4cKVX4l6b9Ets7aP8Ov/UU0/F+bAuEvVLMXbhCYnyE2tLgFIjPDycN29eMtTZSujMokWL4oNfBJJQqqxXbBvslUfHqZMHzJdcckkcYmmTYJUsmThm0zZPlrTKEgveQTGykEexylpZOKaQRY4sedQObX/wgx+Mc588epV+iW25dJp9bMD8jDtCO0mnbfWLhU+7PqX6E6AECJNTJtrMBVSYmE5z5f3xj3+MXgzPNOpNnUEWrhJugzGclEkaGYhl0EEAZDmv+oaJbTu2Hns8b5p+6+5LOmA9kBsCdGVhGLUtmNTffPPN8Q4QnSO7LhrSyMNQL5tJng6gnnjiibh+RGZbiRTB8zsK0lhZG/Vrwkg7X/nKV+JtOvIglw3qmD02jmn6zmSYu25sJOOVZQPVix24wcC5ADZAiQX0zLDPnIsNJ4BcHUD9/ve/T4iUG5aBdtttt+TKsBWo8VHFCMWGBwQoYq7I7373u+ETn/hEdPc8DmBIZPJIIJ03XHzxxaFf6FUfZdLnutVDHns8XSbLPuVZ2/vWt74V7rnnnmS+WsbokLYfbRB49+u1r31tMiKkufjDH/4QYZJMHUBde+21yWQYkCyRF1xwQbwVFokyfFqQYfd19dl2lCZWoAPkVZy3XbWjOG/5KvJLNhmLWLoou33api281Pnnnx9ZYCiHCdhQ+gtf+EJiE2SaktAscOFSNdQJKGLc3fXXXx+Npw5RrqxNMqlTigWT9m08rCzUZUOv+mwepXvlHfa46qffgol0FRttq00WaAURsdLAxZzOToESoJ588smERMZJkUh6jz32CHfccUfiEegQDZaxSYnUrStT7XFOQNtjZcjRhDqtju3FZI+XJafVNSvp3KgBkuatYoSnGs8++2xilzjkYbgHHnggnH766dGVUdAOdxTiFVHyqaGyOuL1NkMD2FkBu8+dOzdxMtbZcBx2yMsWgWKcvPfee+Mdnu6mbKETTjghPu+Ru1XhZnTdpShDA7KxbM7/A+CV5KE09PFSAP/0oJEj8VA8x+G9YgGlAlTAMj8PQe0QVEYnvM7maMACBSywYYc8pXkffcWKFZsDxW0p/6nC7N3CBFAMhTxZt5Ov5nTdJcmjAYGSpQx5gYnAA3tBxOhFgBUeQ915552dQDHkAdTxxx/fUQiYKHTKKadEoMjn22RoAJgIGpWOPPLIONxpuUBA4aH6AqUxkgKkCWmg8lA+Geofr17KM9ErvBMbz3DloTSCMT2ShxKAm82h9DAQoFQBQ56dQzlQ4wVQt95oqBNQdsgTFxrytKRE3gQoZuoMeWSigAWKd5eZQ8n9dRPAj42fBqyn4h0vgSQ+BNRmQx6gOFDjB8SwPSoFKCh0DzWsadpZvjSgWIdiyPO7vHaCUVTqSoCiEW02rWMej48GSgGKZQOGPO7y8FCCiFjp8VGh98RqoHSgWCkXSIqtAJ4eLw2UDpQ8lNYoaNC35mlAF/uw9ikdKP0XMECx1ODrUs2DCYksCMNIaOsZ+ToU/9EroAAJb+V3fcOYq7yy8kyKi7ZUGlA8y+OtPQeqqGnaWa40oLjLw0MxKdeznXaqyKXOo4FSgdKyQR6BPG+7NVAIKAoxF+KNzfQLdnoYaFfKye/bZGigEFAMYRYovQKsF6j0PpSGvLJU6aCWpdni9RYCikLctfGhL75QBkD21RUA4xuL999/f/xHz+Li9S+JHA5Vfx1VfbYwUHioW265JRx88MHxfSgg0ntR8lD8q8yGDRtKfa/cgaoamf7tFQZKH8kAIuuh2CewbCCg+DKbb5OhgcJAMT/ad999I0x6Gw+wCBYoYCrzP1/cQzUL1EJAMSkHKP5hD4B0Z8c8in2GP61DMTSWaXTqLrP+Zpmr+dIUAopCrILjoYCJgFcSUKTf+c53xi/klumdUK/DlB+yMheaCwOFh3rd616XeCgNe3gnfp6BL2zwKWEHKr/Byyqhi09xGe0UBgoPxT/syTtp7kTMVzfOOuusBKgy3zAoUzllKLzOOqvQ1VBA4aHwSHYexafwdtxxx/itS77Az6Tc7/LqxGhT240FCo/DkoC+/MucSXMpPnwPUPJQfEOcD5P51gwNlDl/ooeFPBR3bnxx98ILL4y/nABM8lR4KH7/REDx+gpQ+dYMDTQWKCbb/Pcn/24smLRkwNdnzzzzzDiHAj6GPIeqGUBllcJ6mqxlyGfLZX5jU5DwwXv+FZ1vG2geRZqv9stDMTxyVeCpfKtXA2V7p6GB4vWVk08+Of5mCXd2zJ8AimUD66HUUL3q9Nar0EAhDwXpeCk+ich7T/weHMMccycm5Py2y7ve9a64sImHohGCb/VqoLEeCrUAypo1ayJQ/LAgUAETYBG/+93vTt4pr1eN3nqVGijkoSxQJ510UgISHgqw+FUofkSG96FYMgA+gm/jr4HCQHGXxwt2egWY+RM/bQVQBOZQPJ5Zv359hMrv8sYfJno4FFB8yRWgtGygRU08FL8KxUo5Hoplg7Lu8nxu1ixQCwHF5A4Pxc+WvfnNb07e1GTFnDs8gNKyAZ4JoMp+SNwstdYvjS40xVVJlBUoPokIR4T40xzr1q0LF110UbyzAyStQ7FSzsTcAoV34q7Qt+o0gGGtcatq2bbZa2GTlwoEFPnjNzb5mBi/I6vhTq+vMOxppVwPh4HJJ+XVmFQg0RrpqrcsQPEeHT9kDhPRQyEk/8QJUKyK45XwUnrTgEk5HgqgGPIcqGrNWgdI6mEWoPgRxqVLl0bgyR+HPDzUwoULk7s65k2sPxHzE/QARR4m5cyffMiTyquJ6xoRsgDFkIeHIi9cTAGIhjyGNyAi1pIBywcsbLJs4OtQ1QCkVjBSnVsWoPjl+D//+c+bhjwgYdFywYIFESRgYlGTGJi40+ORDG91coen2XydHfW2R6cBoFFI1zoIKG7emCZ9/OMfT75jP8U/b/Icjzc2mTfNmDEjPhgmzcNh5lP6nA9A4X5pyLfJ0AAOhM3e5fEPLApAdcABB4Tf/e53cTo0BSR4KA5quYCYAnrHnH+j0vehaMCBmgyY6OUgoFgZ4E7vxhtvfGUOBRy6y+PNAjySAkABl/4vjzUoB2pyYKKnuiHo5aFghdHtpptuegUoCgHUG9/4xjgeQpzcmQM1WfD0620voOShAAr4koVNlg1YyIQ4LWxaoICOO0I8mg95/VRfz7kybULdAsrygeNhn/86T4Y8ug8sdg4loBjuNOSRh3WGMgWvxxTe6iANZAEqGfKAhH+jgjJAEkzQB0y4NOZQrFU5UINUX/y8LlTFeWoqUiZv/fJQMKEpkTwUk/JkyGMYW7t2bfKxDAoIKmJ5KAcqjwny5y0bivwSbSrBjVguoFg2gDLBJE/lQG1SapmpojAVLZe3LwDFbw6Lh74eSkOeBYoCgso9VF71589fFRj5JXulBHdvFijYEFRMyjuGvF5ACSoHqqgZspdrG1CCibgrUKyCszglr2RjCvikPDsc45gz1xwKd8aSwBve8IZkDUoujdiBGkdE8vfp6KOPjnNsRqy+HgqgeJ533XXXhVe/+tUJVBSicHrIyy+Kl2i7BuwcCgcjh9N1yCMzQb+kIAI17DlQbcdhePlzAcX4yFoUH8vQ/+WJQGIHaniDtL0GCxQ8iI+uHgqgeIuAf/Tk6yusjKsAhdNzqLYrx+XPr4Fc61BkZumAIQ+ggAjygErB3uXlF8dL9NNA05cMkB1GMq+U0yEKrFy5Mi5epWFyD9UPh8k4J6BwNnI4cNJ1yAOop59+On4QI12AfbyUe6jJAKdXLwUULKSB6vo+VPqXFESfKnCgeqk6/3GMw0XchqFOvUNW1qHEg/gg5v8OeFOFtw24uYsv2DlQUl25sYWJdFu2QUDpWV4HUOmHw9AnIt1DDW96jCKg2gQTPe8FFHww5MlDcXOXeCiAIgNBLs2BGh6kdA0YB8W3aRsE1OLFi8Pq1avjBeNAVWRZjEJgGxcPxQSdbxssWbIk6ZsDVSFQGvIqanJkzXTzUBq95syZE5YtWxYvElbUHaiRqX1wRU0GCtkknzwpsY6lFzYtUPxoAjCR34EazMFQOdLGwUBN3AQO8qZlRl4LlObZLHrjoQBK5R2oEq0r49i4xOaGqloy2ko4pgvAgbKaqSEtAymWYWoQJVOTyJneHKi0RmrcF0iKmw5UN1U5UN20UsMxQSSDABOT1rZtkh+5fciryXqCCYgU2ggT6hsZUMziFfz1lexkApAFCpAUstfSnJxDAaVvG+ixi15dIfZnedmM3A2mbCWbmWtooIAHjySotHjlQGU3OEbAK7XteV23HhYCikK8vsLDYWCynknDngPVTd2bjqFDBc2bNp1tb6owUI8//ng4/PDDO35JQd7Jh7zBQAgmYrwTUI3DVhgoPi39/e9/f7NP+mgIdA/VHw8LVP+c7TpbGCiuKP6N6thjj03+jUrDnXuo/hCMK0z0uhBQFMRN84JU+v/yNOy5h+oNlYDqnaO9Z0YCFBNzQPJXgLOBgNLHdXOgxtWyNfXLgapJ8eParAM1rpatqV8OVE2KH9dmHahxtWxN/XKgalL8uDbrQI2rZWvqlwNVk+LHtVkHalwtW1O/HKiaFD+uzTpQ42rZmvrlQNWk+CY1CwSj2hyoUWmyQfVgVBuqFM2BqlLbFbUlmCpqrqMZB6pDHb4zrAYcqGE16OU7NOBAdajDd4bVgAM1rAa9fIcGHKgOdfjOsBpwoIbVYAnlMUpbNweqYZZr84cyUKUD1SCg+LaBQoPEyiWKA5VLXeVm5mcq2r45UG23YMPkd6AaZpC2i+NAtd2CDZPfgWqYQYYVB4PWuTlQdWp/DNt2oMbQqHV2aWKAqnsoqNPIVbY9MUBVqdRJbsuBmmTrl9D3sQaKzhF8q04DDlR1up6IlsYaqImwYMM66UA1zCBtF8eBarsFGya/A9UwgwwSB4M1eRs7oJqu8CIw6CfQ2vCbMGMBFJ1QKGKwJpfRBdKW/iGnfrcm1y962l9SqPPD91K07UiTARl32awdWgfUpMCkfgpG9pu6tRYoKVmx3GxTFZ1XLv5Zocng9OrPWAA1bjD1AkkXTy9jNuF4K4GSYq3wdSuTOeWoNvUvXV+v4+l8de5bm7RmDtU0xY7qdr5p/SoCZuuAktKJm7CNCqYm9GUUMjhQI9BiU+AeQVeGrqK1QA3dc6+gFA04UKWodXIrbSVQk2uu5vfcgWq+jVolYeuAapV2J1BYB2oCjV5mlx2oMrU7gXU7UBNo9DK7PJFAvfTSS2XqdKLrnjiggGkcPj3YVGpbDRTC59nIz1sBDlQereXL22qg8nX1ldw8zOXlNd/K0cDEASUvVY46vdaJAkowjfJlOEeoUwMTARQAqaMMdw5UJwSj3JOeqbM1b2zmVQAA6UU4pfPW4fmzaWAigBJMium0b+VoYOyBooPpAFi+laOBiQSKTvtWjgbGHqhy1Oa19tLARAPlnqoXFsWPTzRQPpcqDk6vkg5UL8348UIamFigfLgrxMvAQg7UQBV5hjwacKAyasvnW9kU5UBl01Pymb+M2Sc228QCldfiKIrgW38NOFD99ZOcdaASVfRN5AWKqcQUNfLUfvXq1eH4448PdX60tW/vRnDSvVI+JTpQA/TlnmmAglKnJwYo9zQpy5e0O/ZA2Q4yXjtYJZH0/9VafQ96Y1MvO7ZqDkUH9V8udMCBcqCG1oA8ky9ODq3KgRWMvYeSBhwqaaLcOC9QjBqtGfLonB3ibLpctU5u7VmBuuOOO+JUpFVAyawCy4GSRsqL8wLF/LZVHqo81XnN3TSQFahly5bFb0zwnYnWAEWHNXfq1nk/NnoN5AEK79QqDyV1OVTSRPmxgCLutw7VSg9FpxTKV6W3gAbQt9b7BgGlb3W1bshzU5evAV24jAYC6sgjjwxbbLFF2HLLLWM8NTUVXySYM2dOwEMx3JG/NUDRSV015at08loQRDbuBxRwbbXVVmG//fYLy5cvT0aP1gA1eSauv8dZgJo/f35YtWpV8gGTxgPlnqk+sBjudPdmhzwNe9ttt11YuHBhWLlyZQSqsQubcrv1qdJblgYE1KJFi+L8SS9gAtXMmTPDggULIlDke+GFF9ozh1IHPa5WAyxW4nkEFCARtt5667DLLrtED7VixYrw4osvho0bNzYLqLRn0nBXrQq9NasBgML7HHHEEfGujom4gMJDMeQJqA0bNjQLKDoiiNJw2U56upgGpNs8pZmYAxRzqBkzZgTmTQx7QDV79uw45DEpJ0/0UDTCTtP+SaFI5/MoatLyFr1AVe6EE04IO+20U5w3bbvtthEq9plD6S4vPssTUPfcc0+j/uvFgRot8kX1iYdiO+mkkyJMDHPbb799XIOaNm1aOPDAA5O7PNqYkktrClBFOz5a9Y9Xbei0qF4tUDvvvHP0UoDEkMfQN2/evDiHUhsRKFyVAzVeEKk3MrTA0PGssUDEQwHUjjvuGLbZZpsEqH322Sc+eqF+8k5xS9gkoLJ21PNl08CwQAlEAcVSwQ477JBAxbO8JUuWxGWDuLApoO6+++5w3HHHRTfGcxoe/ulh4KmnnhoeeeSROHnP1g3P1RQNCKii8sAHdbz97W+P3ok5FJ4KqJicA9Rtt90W1q9fH6GKHopXDxyooipvdrlhgWLBkhVwnA0QCSjd8c2dOzcOeYxy8S4PAh2oZkNRVDrBpGGrSD0sVhJYh5o+fXqclOOhCAx/m93l0SjrUG30UMjuW28NjAIovBNeCqC4q2NCzsQcoPBWdh2K9qb4g6u66667fA7V2zatPCOghhFecygWNoGJRy/ErEXNmjUrPnrRwiZ547IBBDpQw6i9mWUBathNw+XJJ5+cLBno5To8lYY8YGKki5NygGrjkDesssa5/Ci8E/oBFDaWDZiIMzHHS7EKwBsHvLHZ8U8KUOWT8vFCSzCNwkNpyBNQQMVKOV4KoFg2WLp06ab/y6MAcyg81Lh/wW68sOneGwvTKIDiDg8+tLDJRJw5lIY9VsodqO62aP3RNEyjAooRjDmUlgsEVNpD4ZxqefRCR/Xsp/VWbFAHLFCaTA8rHvNr6mKlHKCYiGsORWz/jSoCRWbmUVU/HFbns3Z4FFdb1rbamk8XKjbFuKPYVA8eivkTj1t408D+X17H11fqACovTCjGgRoFHvnqgA3pnTkUb2syzDF/IgAWHgqgAI/8cWETD1X1G5sSNF8XPXeVGsBGQMLGwiYwAdFAoKCryUA5fFVitKktAUV89NFHJ15JQPEoxnoo8kUPVTVQon6T6J5qqgZggxGs38cyNOTVBlRe5SGob/VogCUD1qHSHopJeXoOFYFCzKo9VD2q8VaLaACYGFHsv6Iz5Nm7vDvvvDPmcaCKaHjCyjDcOVAtNDpXdxOHdkYv5HIP1SKomgoTKnSgWgQSojYZJgtUv7s8n0M1CLo2AIW6HKgGQdNLFGBq+qY1w8YA1fQrsE6DOlAvv5xZ/1KWCM9c0DPWrgE5AWLZr3YPJaFq144LkEsDspvixgBFLyRMrh555to0IIiI2Yhlw9o9VG1a8YYLacDCNDZAqSOFNOKFCmsgDZPsQNxqD6WOFNZMQwvKYE0Ur59srQeqiQofRiYZi7iJ2yD5HKiGWG2QoZogppWRdLfNgeqmlQqPpY3Uy1AVirRZU8yJrJybZTAHHCijjDqS1lBthwn9OVB1UPT/bTYdJgEiObOoyoHKoqUS8shIiktoYiRVSj7iLBv5Wr1skKWTTcyT11B19SErSJLPgZImKo4FVMXN5m6uFUDlFTK3FhpeoC0woca8tiJ/5UNeXiEbzsfYilfETrUAldcCRTqWtw3PPxoNVA5UXjjy5h+NWsqpZZz60ktDlQPVS5BxPo6SJwEmbOhAlUzyJMHUeKDaflVPGkytAKqNUAmkNso+rMOmz5UvGwwrdNPLO1CvfMHO3ykfAakWJl2pw1bLj/G0ZXMPNSJLpUECJgfqqI5PIvr3oXLA1g0ovkIy7EYdbfJQ9FcXUu4hT98p1zeo7Yc5+YnYhx9+OH4ab1iltqW8hQoQRgFU3r6rXWIMi0xVbLYdpdNAwQcfbeWnOZYvX5589mcKAfXhez4drM8G49JU6LTTTpsooASThjoZtgpj2jYEkmCSXDZPGWlBRN3dPBRsEPRLCny0VTJuBhTUWS9FGqD4EWs+4GkbK6MzTahThqsbKLUvearWPe0JFDwULKQdDh6K70MJ/ggUO2vWrAknnnhix6+iq4LFixeHBx98sBa3Xwdg1oAoFP3gxave0kBV3b70QLuHHXZYZAMm5KFwPvxeHj/eqbwJUA888EA4/fTTYyEVoDCFDj300HDfffclharuWNXtSTnEdQGVhglZqt7UJrIccMAByRRIfDDk7b///uH+++9PPFkC1JNPPhnOP//8ZLiTayPec8894+95SMFVd6zq9uin+loHUBo+JAdxFZvaU1tql+kOPxzEnFpcABX7hxxySFi3bl0nUCjtX//6V/jkJz+Z/DiMClKI30f78Y9/HJVch+tXB6uKpVh5iaqHPNqVDDJqFX1Xu2pL+z//+c+T75LDhWAiPuOMM+J0QHJGD8UOoHznO9+Jv4nGMIc7s0RefPHFcVKOctmYoD/zzDNJZXUoQB0fday+1AWU2lc86v51q8+2RZqNGHtfeOGFESI5GUCCEfi46qqrEm9OmQQovpj/61//OsybNy+BiQIKe+21V3jooYcS1yZ6pXQq0zEJFKVq4SXACZMAAAWcSURBVB8pl5g+oVRdSGV1R3q0bZfVVq961V/JQD7mznvvvXcy1IkHYsD67W9/G3Uk20egKEgljJXHHHNM4pkoQBCZn/3sZ2M+4FOjVtFUyqY47rTwj/pGLEPbfo66S2rDtjvqNgbVp76ST3Ig1+c///kwffr06GTEATCR3n333cNzzz0XdaQyCVCC4Oqrrw4zZsyIUOHWVAlpfmL9L3/5S2yQIZJKJIDKq+JBHWjyefVBMX0bNVDojzqpm6C2FNehH9qWLMi3ZMmSsGDBguTOX95JTFxxxRVRbpWhfAKUKmPVk7UF5lDyUMQaM/ntWdakbCWkCWx1KmSURlA/pBf1b1RtNBEm9RXZHn300XDBBRdE76ThTTFA7brrrvE3FqUn6WUzoBjOLr/88ggTEAkquTl+c5YJuhY6VaGNR618CVt1nO4TilbgCibYvpIf/XHDovOKVY6YMgRbP+m6N2RDjmeffTZ87nOfC7Nnz068kxyKvNNll13WtR8dQKmDLFTtu+++yYTckkmaNYmPfOQjcc6FECiRTeWtsqySmqA0K0+WtO0T/RIYAoVjduO8ztk0+WxQvXXpJN0u+8jHr6BfeeWVYdasWcmoBEQKgDV//vywbNmy5A7f9r8rUFT805/+NJlHCSi8FWkqxVOxss4KO8KgRP1YH+W1keacOmDPKU/TY2SXwi0k9It92yfyKQ+xAnkIqktxlX1Pt4k8Vj6GOd4sYRKOnWVrYv14NXb/xje+EV/Dob701gEUlavTGzZsCJdeemmcoDOfglCAomLNqTiGW7z22mvjmpQeHhMTpEQJrfrtftPT8jbEeGLFGtroJ8escXSOq53z7CvY+urqu+QFCOR76qmnwg9+8IP4RARnoSCby5FMmzYtnHnmmfHNE/qG/OktAUog2Xjt2rXhlFNOiSvlagRaaYhYoLF/0EEHhWuuuSbcfPPNgXerHnvssSgoi5/pwFJ9W0Ja9qeffjr2CyMQ/vnPf8ZY/SG/zUPaBtWn/FXGtI3MLA/xMsAtt9wSvv71r4dFixZFG2sxG9sSAAnbEjhHvttvvz1ePIAEK+ktAQpadZWRiX2uKpYJeE+Kxy9ARSMiVg0Tcw7vxez/8MMPD2effXZcYWWuhae75JJLYky6rUF9IE6Hj370o4GgvqbPa7/uvl900UXhrLPOir8utdtuuyXOQU6C2NpXMB188MGbLWIOHPIEEhkVgIr1CF5hgVJRnG6UhoFKMfnYBzaOEShDbEFsW7qb/Byjr+q/7XO3/HX1GVkUZBvJ2k0m5cUz3XrrrdHhiAvFPT1U+gQFBBhjLssEvI1Aw1KclCW4tC/h0vvKR9zWQN/UD/Wz27491pS+Sl7ZBblIW/msbUnjzZjCwIOmQ0qnmWE/GfK6ndQxTR6p8Nvf/naYOXNmFIQhzgokZUtA9u15Hfe43gtKYGEHm8aeGoGw8Re/+MW4JmVBEhO94oFAybVRqe5QVq1aFc4999x4V8AtphUEgBQkrMAitp2w5z296UF81brAXngj7uL22GOPuHTAhF2eSAz0gsgeHwgUmVUhUCk8//zz4Te/+U2chB5xxBFRECbuCKf5E0IqWJgEnMebLr4qdCFb0JbS2IrJOa/48gTkhhtuCOvXr09u0LB9ni03UKJWYLEegcf60Y9+FHiwfN5558V30xcuXBhXVOfOnRsUeF2UNLGH6nWA7nk9iSUe7tzPOeecwBsk119/fXwjd+PGjcmamuxbCVDWYzG/4k6QGIGeeOKJcO+994YVK1bE5XmWHZYuXeqhQTrANtiItUIWsO0cWbZVDFh5tkweigqZP4lWNaaGtI9g5LMxeTiPYFZwXQEeb5pGVKkLOQHZFDvRvmwlWex52btfnBkoVUxs01YQNaTzdj99TOc8rl4D1hakBZI9XlSq/wNxBKSQv1vWbAAAAABJRU5ErkJggg==;" vertex="1" parent="1">
          <mxGeometry x="30" y="100" width="233.95" height="460" as="geometry" />
        </mxCell>
        <mxCell id="NQG3vtU-WxNMfQbi0KK1-2" value="&lt;font face=&quot;Verdana&quot; style=&quot;font-size: 21px;&quot;&gt;&amp;lt;&lt;/font&gt;" style="text;html=1;align=center;verticalAlign=middle;whiteSpace=wrap;rounded=0;" vertex="1" parent="1">
          <mxGeometry x="48" y="130" width="20" height="30" as="geometry" />
        </mxCell>
        <mxCell id="NQG3vtU-WxNMfQbi0KK1-3" value="&lt;font face=&quot;Verdana&quot;&gt;&amp;lt;&amp;lt;Title&amp;gt;&amp;gt;&lt;/font&gt;" style="text;html=1;align=center;verticalAlign=middle;whiteSpace=wrap;rounded=0;" vertex="1" parent="1">
          <mxGeometry x="90" y="130" width="90" height="30" as="geometry" />
        </mxCell>
        <mxCell id="NQG3vtU-WxNMfQbi0KK1-4" value="&lt;font face=&quot;Verdana&quot;&gt;Cancel&lt;/font&gt;" style="text;html=1;align=center;verticalAlign=middle;whiteSpace=wrap;rounded=0;" vertex="1" parent="1">
          <mxGeometry x="190" y="130" width="60" height="30" as="geometry" />
        </mxCell>
        <mxCell id="NQG3vtU-WxNMfQbi0KK1-5" value="" style="endArrow=none;html=1;rounded=0;exitX=0;exitY=1;exitDx=0;exitDy=0;entryX=1;entryY=1;entryDx=0;entryDy=0;strokeColor=#858585;" edge="1" parent="1">
          <mxGeometry width="50" height="50" relative="1" as="geometry">
            <mxPoint x="46" y="159" as="sourcePoint" />
            <mxPoint x="248" y="159" as="targetPoint" />
          </mxGeometry>
        </mxCell>
        <mxCell id="NQG3vtU-WxNMfQbi0KK1-6" value="&amp;lt;&amp;lt;fieldName&amp;gt;&amp;gt;" style="text;html=1;align=center;verticalAlign=middle;whiteSpace=wrap;rounded=0;" vertex="1" parent="1">
          <mxGeometry x="48" y="170" width="82" height="30" as="geometry" />
        </mxCell>
        <mxCell id="NQG3vtU-WxNMfQbi0KK1-7" value="Continue" style="rounded=1;html=1;shadow=0;dashed=0;whiteSpace=wrap;fontSize=10;fillColor=#666666;align=center;strokeColor=#999999;fontColor=#ffffff;" vertex="1" parent="1">
          <mxGeometry x="80" y="510" width="140" height="26.88" as="geometry" />
        </mxCell>
        <mxCell id="NQG3vtU-WxNMfQbi0KK1-8" value="" style="shape=image;html=1;verticalAlign=top;verticalLabelPosition=bottom;labelBackgroundColor=#ffffff;imageAspect=0;aspect=fixed;image=https://cdn2.iconfinder.com/data/icons/user-interface-ui-1-set/64/symbol-help-information-question-helpdesk-info-128.png" vertex="1" parent="1">
          <mxGeometry x="50" y="233" width="18" height="18" as="geometry" />
        </mxCell>
        <mxCell id="NQG3vtU-WxNMfQbi0KK1-9" value="&amp;lt;&amp;lt;info-message&amp;gt;&amp;gt;" style="text;html=1;align=center;verticalAlign=middle;whiteSpace=wrap;rounded=0;" vertex="1" parent="1">
          <mxGeometry x="65" y="228" width="114" height="30" as="geometry" />
        </mxCell>
        <mxCell id="NQG3vtU-WxNMfQbi0KK1-10" value="&amp;lt;&amp;lt;info-message&amp;gt;&amp;gt; - Please enter value greater than 0." style="text;html=1;align=center;verticalAlign=middle;whiteSpace=wrap;rounded=0;" vertex="1" parent="1">
          <mxGeometry x="10" y="564.5" width="330" height="30" as="geometry" />
        </mxCell>
        <mxCell id="NQG3vtU-WxNMfQbi0KK1-11" value="" style="rounded=0;whiteSpace=wrap;html=1;" vertex="1" parent="1">
          <mxGeometry x="50" y="200" width="190" height="30" as="geometry" />
        </mxCell>
        <mxCell id="NQG3vtU-WxNMfQbi0KK1-12" value="&amp;lt;&amp;lt;fieldName&amp;gt;&amp;gt;" style="text;html=1;align=center;verticalAlign=middle;whiteSpace=wrap;rounded=0;" vertex="1" parent="1">
          <mxGeometry x="50.97" y="283" width="82" height="30" as="geometry" />
        </mxCell>
        <mxCell id="NQG3vtU-WxNMfQbi0KK1-13" value="" style="rounded=0;whiteSpace=wrap;html=1;" vertex="1" parent="1">
          <mxGeometry x="52.97" y="313" width="190" height="30" as="geometry" />
        </mxCell>
        <mxCell id="NQG3vtU-WxNMfQbi0KK1-14" value="" style="html=1;verticalLabelPosition=bottom;labelBackgroundColor=#ffffff;verticalAlign=top;shadow=0;dashed=0;strokeWidth=2;shape=mxgraph.ios7.misc.down;strokeColor=#0080f0;" vertex="1" parent="1">
          <mxGeometry x="226" y="325" width="12" height="6" as="geometry" />
        </mxCell>
        <mxCell id="NQG3vtU-WxNMfQbi0KK1-15" value="&amp;lt;&amp;lt;fieldName&amp;gt;&amp;gt;" style="text;html=1;align=center;verticalAlign=middle;whiteSpace=wrap;rounded=0;" vertex="1" parent="1">
          <mxGeometry x="51.97" y="363" width="82" height="30" as="geometry" />
        </mxCell>
        <mxCell id="NQG3vtU-WxNMfQbi0KK1-16" value="" style="rounded=0;whiteSpace=wrap;html=1;" vertex="1" parent="1">
          <mxGeometry x="51.97" y="393" width="190" height="60" as="geometry" />
        </mxCell>
        <mxCell id="NQG3vtU-WxNMfQbi0KK1-17" value="&lt;font style=&quot;font-size: 9px;&quot;&gt;0/500&lt;/font&gt;" style="text;html=1;align=center;verticalAlign=middle;whiteSpace=wrap;rounded=0;" vertex="1" parent="1">
          <mxGeometry x="197.97" y="461" width="44" height="10" as="geometry" />
        </mxCell>
        <mxCell id="NQG3vtU-WxNMfQbi0KK1-18" value="" style="shape=image;html=1;verticalAlign=top;verticalLabelPosition=bottom;labelBackgroundColor=#ffffff;imageAspect=0;aspect=fixed;image=https://cdn0.iconfinder.com/data/icons/Hand_Drawn_Web_Icon_Set/128/bullet_error.png" vertex="1" parent="1">
          <mxGeometry x="51.5" y="254" width="16" height="16" as="geometry" />
        </mxCell>
        <mxCell id="NQG3vtU-WxNMfQbi0KK1-19" value="&amp;lt;&amp;lt;error-message&amp;gt;&amp;gt;" style="text;html=1;align=center;verticalAlign=middle;whiteSpace=wrap;rounded=0;" vertex="1" parent="1">
          <mxGeometry x="65.5" y="248" width="114" height="30" as="geometry" />
        </mxCell>
        <mxCell id="NQG3vtU-WxNMfQbi0KK1-20" value="&amp;lt;&amp;lt;error-message&amp;gt;&amp;gt; - This field is mandatory" style="text;html=1;align=center;verticalAlign=middle;whiteSpace=wrap;rounded=0;" vertex="1" parent="1">
          <mxGeometry x="20" y="594.5" width="260" height="30" as="geometry" />
        </mxCell>
        <mxCell id="NQG3vtU-WxNMfQbi0KK1-42" value="&lt;font face=&quot;Verdana&quot; style=&quot;font-size: 21px;&quot;&gt;&amp;lt;&lt;/font&gt;" style="text;html=1;align=center;verticalAlign=middle;whiteSpace=wrap;rounded=0;" vertex="1" parent="1">
          <mxGeometry x="442" y="160" width="20" height="30" as="geometry" />
        </mxCell>
        <mxCell id="NQG3vtU-WxNMfQbi0KK1-43" value="&lt;font face=&quot;Verdana&quot;&gt;&amp;lt;&amp;lt;Title&amp;gt;&amp;gt;&lt;/font&gt;" style="text;html=1;align=center;verticalAlign=middle;whiteSpace=wrap;rounded=0;" vertex="1" parent="1">
          <mxGeometry x="615" y="160" width="90" height="30" as="geometry" />
        </mxCell>
        <mxCell id="NQG3vtU-WxNMfQbi0KK1-44" value="&lt;font face=&quot;Verdana&quot;&gt;Cancel&lt;/font&gt;" style="text;html=1;align=center;verticalAlign=middle;whiteSpace=wrap;rounded=0;" vertex="1" parent="1">
          <mxGeometry x="818" y="160" width="60" height="30" as="geometry" />
        </mxCell>
        <mxCell id="NQG3vtU-WxNMfQbi0KK1-45" value="" style="endArrow=none;html=1;rounded=0;exitX=0;exitY=1;exitDx=0;exitDy=0;strokeColor=#858585;entryX=1;entryY=1;entryDx=0;entryDy=0;" edge="1" parent="1" target="NQG3vtU-WxNMfQbi0KK1-44">
          <mxGeometry width="50" height="50" relative="1" as="geometry">
            <mxPoint x="440" y="189" as="sourcePoint" />
            <mxPoint x="642" y="189" as="targetPoint" />
          </mxGeometry>
        </mxCell>
        <mxCell id="NQG3vtU-WxNMfQbi0KK1-46" value="&amp;lt;&amp;lt;fieldName&amp;gt;&amp;gt;" style="text;html=1;align=center;verticalAlign=middle;whiteSpace=wrap;rounded=0;" vertex="1" parent="1">
          <mxGeometry x="442" y="200" width="82" height="30" as="geometry" />
        </mxCell>
        <mxCell id="NQG3vtU-WxNMfQbi0KK1-47" value="Continue" style="rounded=1;html=1;shadow=0;dashed=0;whiteSpace=wrap;fontSize=10;fillColor=#666666;align=center;strokeColor=#999999;fontColor=#ffffff;" vertex="1" parent="1">
          <mxGeometry x="500" y="634.5" width="310" height="46.88" as="geometry" />
        </mxCell>
        <mxCell id="NQG3vtU-WxNMfQbi0KK1-48" value="" style="shape=image;html=1;verticalAlign=top;verticalLabelPosition=bottom;labelBackgroundColor=#ffffff;imageAspect=0;aspect=fixed;image=https://cdn2.iconfinder.com/data/icons/user-interface-ui-1-set/64/symbol-help-information-question-helpdesk-info-128.png" vertex="1" parent="1">
          <mxGeometry x="444" y="263" width="18" height="18" as="geometry" />
        </mxCell>
        <mxCell id="NQG3vtU-WxNMfQbi0KK1-49" value="&amp;lt;&amp;lt;info-message&amp;gt;&amp;gt;" style="text;html=1;align=center;verticalAlign=middle;whiteSpace=wrap;rounded=0;" vertex="1" parent="1">
          <mxGeometry x="459" y="258" width="114" height="30" as="geometry" />
        </mxCell>
        <mxCell id="NQG3vtU-WxNMfQbi0KK1-50" value="" style="rounded=0;whiteSpace=wrap;html=1;" vertex="1" parent="1">
          <mxGeometry x="444" y="230" width="426" height="30" as="geometry" />
        </mxCell>
        <mxCell id="NQG3vtU-WxNMfQbi0KK1-51" value="&amp;lt;&amp;lt;fieldName&amp;gt;&amp;gt;" style="text;html=1;align=center;verticalAlign=middle;whiteSpace=wrap;rounded=0;" vertex="1" parent="1">
          <mxGeometry x="444.97" y="313" width="82" height="30" as="geometry" />
        </mxCell>
        <mxCell id="NQG3vtU-WxNMfQbi0KK1-52" value="" style="rounded=0;whiteSpace=wrap;html=1;" vertex="1" parent="1">
          <mxGeometry x="446.97" y="343" width="423.03" height="30" as="geometry" />
        </mxCell>
        <mxCell id="NQG3vtU-WxNMfQbi0KK1-53" value="" style="html=1;verticalLabelPosition=bottom;labelBackgroundColor=#ffffff;verticalAlign=top;shadow=0;dashed=0;strokeWidth=2;shape=mxgraph.ios7.misc.down;strokeColor=#0080f0;" vertex="1" parent="1">
          <mxGeometry x="848" y="355" width="12" height="6" as="geometry" />
        </mxCell>
        <mxCell id="NQG3vtU-WxNMfQbi0KK1-54" value="&amp;lt;&amp;lt;fieldName&amp;gt;&amp;gt;" style="text;html=1;align=center;verticalAlign=middle;whiteSpace=wrap;rounded=0;" vertex="1" parent="1">
          <mxGeometry x="445.97" y="393" width="82" height="30" as="geometry" />
        </mxCell>
        <mxCell id="NQG3vtU-WxNMfQbi0KK1-55" value="" style="rounded=0;whiteSpace=wrap;html=1;" vertex="1" parent="1">
          <mxGeometry x="445.97" y="423" width="424.03" height="60" as="geometry" />
        </mxCell>
        <mxCell id="NQG3vtU-WxNMfQbi0KK1-56" value="&lt;font style=&quot;font-size: 9px;&quot;&gt;0/500&lt;/font&gt;" style="text;html=1;align=center;verticalAlign=middle;whiteSpace=wrap;rounded=0;" vertex="1" parent="1">
          <mxGeometry x="824.97" y="491" width="44" height="10" as="geometry" />
        </mxCell>
        <mxCell id="NQG3vtU-WxNMfQbi0KK1-57" value="" style="shape=image;html=1;verticalAlign=top;verticalLabelPosition=bottom;labelBackgroundColor=#ffffff;imageAspect=0;aspect=fixed;image=https://cdn0.iconfinder.com/data/icons/Hand_Drawn_Web_Icon_Set/128/bullet_error.png" vertex="1" parent="1">
          <mxGeometry x="445.5" y="284" width="16" height="16" as="geometry" />
        </mxCell>
        <mxCell id="NQG3vtU-WxNMfQbi0KK1-58" value="&amp;lt;&amp;lt;error-message&amp;gt;&amp;gt;" style="text;html=1;align=center;verticalAlign=middle;whiteSpace=wrap;rounded=0;" vertex="1" parent="1">
          <mxGeometry x="459.5" y="278" width="114" height="30" as="geometry" />
        </mxCell>
        <mxCell id="oH9SZKmKfnMoE6zpDoue-1" value="" style="endArrow=none;html=1;rounded=0;" edge="1" parent="1">
          <mxGeometry width="50" height="50" relative="1" as="geometry">
            <mxPoint x="1050" y="180" as="sourcePoint" />
            <mxPoint x="1590" y="180" as="targetPoint" />
          </mxGeometry>
        </mxCell>
        <mxCell id="oH9SZKmKfnMoE6zpDoue-2" value="Customer Logo" style="rounded=1;whiteSpace=wrap;html=1;" vertex="1" parent="1">
          <mxGeometry x="1050" y="110" width="120" height="60" as="geometry" />
        </mxCell>
        <mxCell id="oH9SZKmKfnMoE6zpDoue-3" value="Welcome &amp;lt;&amp;lt;Username&amp;gt;&amp;gt; | Logout" style="text;html=1;align=center;verticalAlign=middle;whiteSpace=wrap;rounded=0;" vertex="1" parent="1">
          <mxGeometry x="1395" y="127" width="190" height="30" as="geometry" />
        </mxCell>
        <mxCell id="oH9SZKmKfnMoE6zpDoue-6" value="&amp;lt;&amp;lt;Social Media Links, Contact Us, Other Public Safety Links&amp;gt;&amp;gt;" style="text;html=1;align=center;verticalAlign=middle;whiteSpace=wrap;rounded=0;" vertex="1" parent="1">
          <mxGeometry x="1130" y="670" width="350" height="30" as="geometry" />
        </mxCell>
        <mxCell id="oH9SZKmKfnMoE6zpDoue-10" value="&amp;lt;&amp;lt;AppLogo&amp;gt;&amp;gt;&amp;lt;&amp;lt;ApplicationName&amp;gt;&amp;gt;" style="text;html=1;align=center;verticalAlign=middle;whiteSpace=wrap;rounded=0;" vertex="1" parent="1">
          <mxGeometry x="1240" y="125" width="100" height="30" as="geometry" />
        </mxCell>
        <mxCell id="oH9SZKmKfnMoE6zpDoue-13" value="" style="endArrow=none;html=1;rounded=0;" edge="1" parent="1">
          <mxGeometry width="50" height="50" relative="1" as="geometry">
            <mxPoint x="1050" y="657.44" as="sourcePoint" />
            <mxPoint x="1590" y="657.44" as="targetPoint" />
          </mxGeometry>
        </mxCell>
      </root>
    </mxGraphModel>
  </diagram>
  <diagram id="w_UnnHIAo2eM6WU7TzSt" name="spash-screens">
    <mxGraphModel dx="1434" dy="746" grid="1" gridSize="10" guides="1" tooltips="1" connect="1" arrows="1" fold="1" page="1" pageScale="1" pageWidth="827" pageHeight="1169" math="0" shadow="0">
      <root>
        <mxCell id="0" />
        <mxCell id="1" parent="0" />
        <mxCell id="ziQ2_6mNSfkVAK9xwGAW-1" value="" style="shape=image;verticalLabelPosition=bottom;labelBackgroundColor=default;verticalAlign=top;aspect=fixed;imageAspect=0;image=data:image/png,iVBORw0KGgoAAAANSUhEUgAAAJQAAAEjCAYAAADUhCitAAAgAElEQVR4Ae2decwdVfnHXxBKy15aBBQoIC1VWhERkLJDFWRzZREhIQoCKhgNGgUT1BDX6B8aQwxqTEj8Q42oEI2KGhGoaaGLAi1i2SEgUAi2BUQ9v3wOv+/0udO7zMy9s937THLec2bmLM95ns8858yZeedOhYzb//73v5jzP//5TyBN+O9//5scI/3yyy+H5557Ljz88MNhzZo14a677gp//etfY/jb3/4WmhwkJ/GqVat6hpUrVwaCzaOyTe4fsiEn8erVq8ODDz4Y1q1bF/79738H2RQbKsjGijG00sTajwnzZ8qkuyZVCScFkBpFENII96tf/Sp885vfDJdddll43/veF4477rjw1re+NbzlLW+J4bDDDguEQw89NDmmc3XEyGFDVhkOOeSQoGDLNKVfVqZuaeQ85phjwnve855w6aWXhq997Wvhl7/8ZbjvvvuiQ8ApYHPZGLuLAR1Ln7fgDARKIKlSIKJRyF62bFm46qqrwuLFi8P+++8ftttuu7DllluGV73qVTFWequttkr2SXO+CQFZbCgqk+ooWr7KctiEgMzE06dPD/vss0849thjw6c+9alw6623hpdeeilCJIeB7QWajhF323IBpUrxSB/72MciRDNmzIjCoZSpqamwxRZbxICwShNzjpA+bvN4+hXdlaUHdE+wdqItbEeMQ5gzZ04477zz4tAISIAjZ4KHUlqQpaHKBJQqhtxf/OIXYe+99w5bb711DJAumASLhLYQSWgdyxqXpdy212v1p77YY73S2EH2kk0oL5txDJu+5jWvCdddd13YuHFjHI0YkeBAUAES++ktE1BU8vjjj4crrrgi8T4SygqCYBznmA3qcJa4lyL8+Cse3uohiz7TeWQXHALnbH2AxD42JDAcMs9au3ZtB0zdQBJYmwFlM4tI7mje+973JkMbjUkYBCRNrOPE2lfMMR3nWL9glWA7XHY6T7tZ8pIHmRUPK7+th7R0KN0Sa26kc+nYjii2DsnGMYKt6x3veEdYvnx54p3gwnIimIg7gFJGYk2+gOmMM84IzJVoxCpIAkE7gnN+++23D/Pnzw9ve9vbIoTnnHNOILz//e8P5557boy1b8+R5vxpp50Wdtlll9gpdU6xOj2qWPWqH8ivY73a4Dzn6K/KqYzO6Th5lLdXfYOOq27yKa341FNP7dDn2WefHXUtvXaLuQPnJurAAw+MthJwvUBEJ4Sjjjoq3H777cndn1ixMHUAxbAmiJT5oYceigICkxRoXaU9tt9++4XLL788/OxnP4s0//3vfw+PPPJIHCofe+yxGDNsPvroo0mafQXyEP70pz+FN73pTfFKQ4l0RoYZpPy85zEMZVAm6Z122inMnj07Ag3U3cLMmTNjnlmzZsXzO++8c5xLWhlJ25sVtZNXvm75BRPxbbfdFnUmPaNbq2vp1sbk+cc//hHX0m666abw6U9/OjoAzYllX9sOafpz4oknxnKwQui2RQ8FQLqDI01mJuA0Nm3atGhQlITi1Uk1yJ3BZz7zmQjPCy+80EEwdRAAVUsNCMG+goTjPIHFUNZPaM8GtTuqGPmtR/rqV78aYecOlgupV2DRlnMYBUOy/6UvfaljyYSrmdvvn/zkJ0kbReRGRpVDF9I5x0gzt0F/6JJJ84svvhj1TbpXwB6yNeWYdNPnL3/5y/ECoW6NOGpfbcMCd4BA2xcojCyvpIzQu8022yQKQfnqHGBtu+220Q0ytgpCBEVI6uCY3VR/+pj2VQfGYuFNnZAS1TnJMIpYwOKVnnnmmUQHkqlfjLz0lQ1vvPvuu8cLDqWznoNxucAWLFjQcSHmkVt9li4oSxpb4D2tzNK34n6yYx8LFf2g3N133x0vZryRbZt22addPPL3vve9xFGk20nmUDRCoHJc5Otf//qkUlWuSpknfeADH0hm/1AviBCMwD6b6tVx4l4b5zDChz70ocQz0qbaz2OMLHlt3ddcc030KngW5gq9AsOMzpEmXH311WGHHXaIcmJwPNQNN9wQfvjDH8YLbxj5rYy6ADjGXNPqNGs6fcGrnI4///zz4cMf/nAEViBLfrV/0EEHxUdP2JHydkuA4iDGh9wrr7wyIZLKVDExnonJM1cl+UW3KpeAAkr7Oq9Yx61AOsY8jCtQHVCHskCSJ4/tG1flXnvtFdfYWGcj3S2w8EdQnj333DOBRnLiwXfdddeOSW8eubrlpW4CXoIL+sYbb+y4cKVX4l6b9Ets7aP8Ov/UU0/F+bAuEvVLMXbhCYnyE2tLgFIjPDycN29eMtTZSujMokWL4oNfBJJQqqxXbBvslUfHqZMHzJdcckkcYmmTYJUsmThm0zZPlrTKEgveQTGykEexylpZOKaQRY4sedQObX/wgx+Mc588epV+iW25dJp9bMD8jDtCO0mnbfWLhU+7PqX6E6AECJNTJtrMBVSYmE5z5f3xj3+MXgzPNOpNnUEWrhJugzGclEkaGYhl0EEAZDmv+oaJbTu2Hns8b5p+6+5LOmA9kBsCdGVhGLUtmNTffPPN8Q4QnSO7LhrSyMNQL5tJng6gnnjiibh+RGZbiRTB8zsK0lhZG/Vrwkg7X/nKV+JtOvIglw3qmD02jmn6zmSYu25sJOOVZQPVix24wcC5ADZAiQX0zLDPnIsNJ4BcHUD9/ve/T4iUG5aBdtttt+TKsBWo8VHFCMWGBwQoYq7I7373u+ETn/hEdPc8DmBIZPJIIJ03XHzxxaFf6FUfZdLnutVDHns8XSbLPuVZ2/vWt74V7rnnnmS+WsbokLYfbRB49+u1r31tMiKkufjDH/4QYZJMHUBde+21yWQYkCyRF1xwQbwVFokyfFqQYfd19dl2lCZWoAPkVZy3XbWjOG/5KvJLNhmLWLoou33api281Pnnnx9ZYCiHCdhQ+gtf+EJiE2SaktAscOFSNdQJKGLc3fXXXx+Npw5RrqxNMqlTigWT9m08rCzUZUOv+mwepXvlHfa46qffgol0FRttq00WaAURsdLAxZzOToESoJ588smERMZJkUh6jz32CHfccUfiEegQDZaxSYnUrStT7XFOQNtjZcjRhDqtju3FZI+XJafVNSvp3KgBkuatYoSnGs8++2xilzjkYbgHHnggnH766dGVUdAOdxTiFVHyqaGyOuL1NkMD2FkBu8+dOzdxMtbZcBx2yMsWgWKcvPfee+Mdnu6mbKETTjghPu+Ru1XhZnTdpShDA7KxbM7/A+CV5KE09PFSAP/0oJEj8VA8x+G9YgGlAlTAMj8PQe0QVEYnvM7maMACBSywYYc8pXkffcWKFZsDxW0p/6nC7N3CBFAMhTxZt5Ov5nTdJcmjAYGSpQx5gYnAA3tBxOhFgBUeQ915552dQDHkAdTxxx/fUQiYKHTKKadEoMjn22RoAJgIGpWOPPLIONxpuUBA4aH6AqUxkgKkCWmg8lA+Geofr17KM9ErvBMbz3DloTSCMT2ShxKAm82h9DAQoFQBQ56dQzlQ4wVQt95oqBNQdsgTFxrytKRE3gQoZuoMeWSigAWKd5eZQ8n9dRPAj42fBqyn4h0vgSQ+BNRmQx6gOFDjB8SwPSoFKCh0DzWsadpZvjSgWIdiyPO7vHaCUVTqSoCiEW02rWMej48GSgGKZQOGPO7y8FCCiFjp8VGh98RqoHSgWCkXSIqtAJ4eLw2UDpQ8lNYoaNC35mlAF/uw9ikdKP0XMECx1ODrUs2DCYksCMNIaOsZ+ToU/9EroAAJb+V3fcOYq7yy8kyKi7ZUGlA8y+OtPQeqqGnaWa40oLjLw0MxKdeznXaqyKXOo4FSgdKyQR6BPG+7NVAIKAoxF+KNzfQLdnoYaFfKye/bZGigEFAMYRYovQKsF6j0PpSGvLJU6aCWpdni9RYCikLctfGhL75QBkD21RUA4xuL999/f/xHz+Li9S+JHA5Vfx1VfbYwUHioW265JRx88MHxfSgg0ntR8lD8q8yGDRtKfa/cgaoamf7tFQZKH8kAIuuh2CewbCCg+DKbb5OhgcJAMT/ad999I0x6Gw+wCBYoYCrzP1/cQzUL1EJAMSkHKP5hD4B0Z8c8in2GP61DMTSWaXTqLrP+Zpmr+dIUAopCrILjoYCJgFcSUKTf+c53xi/klumdUK/DlB+yMheaCwOFh3rd616XeCgNe3gnfp6BL2zwKWEHKr/Byyqhi09xGe0UBgoPxT/syTtp7kTMVzfOOuusBKgy3zAoUzllKLzOOqvQ1VBA4aHwSHYexafwdtxxx/itS77Az6Tc7/LqxGhT240FCo/DkoC+/MucSXMpPnwPUPJQfEOcD5P51gwNlDl/ooeFPBR3bnxx98ILL4y/nABM8lR4KH7/REDx+gpQ+dYMDTQWKCbb/Pcn/24smLRkwNdnzzzzzDiHAj6GPIeqGUBllcJ6mqxlyGfLZX5jU5DwwXv+FZ1vG2geRZqv9stDMTxyVeCpfKtXA2V7p6GB4vWVk08+Of5mCXd2zJ8AimUD66HUUL3q9Nar0EAhDwXpeCk+ich7T/weHMMccycm5Py2y7ve9a64sImHohGCb/VqoLEeCrUAypo1ayJQ/LAgUAETYBG/+93vTt4pr1eN3nqVGijkoSxQJ510UgISHgqw+FUofkSG96FYMgA+gm/jr4HCQHGXxwt2egWY+RM/bQVQBOZQPJ5Zv359hMrv8sYfJno4FFB8yRWgtGygRU08FL8KxUo5Hoplg7Lu8nxu1ixQCwHF5A4Pxc+WvfnNb07e1GTFnDs8gNKyAZ4JoMp+SNwstdYvjS40xVVJlBUoPokIR4T40xzr1q0LF110UbyzAyStQ7FSzsTcAoV34q7Qt+o0gGGtcatq2bbZa2GTlwoEFPnjNzb5mBi/I6vhTq+vMOxppVwPh4HJJ+XVmFQg0RrpqrcsQPEeHT9kDhPRQyEk/8QJUKyK45XwUnrTgEk5HgqgGPIcqGrNWgdI6mEWoPgRxqVLl0bgyR+HPDzUwoULk7s65k2sPxHzE/QARR4m5cyffMiTyquJ6xoRsgDFkIeHIi9cTAGIhjyGNyAi1pIBywcsbLJs4OtQ1QCkVjBSnVsWoPjl+D//+c+bhjwgYdFywYIFESRgYlGTGJi40+ORDG91coen2XydHfW2R6cBoFFI1zoIKG7emCZ9/OMfT75jP8U/b/Icjzc2mTfNmDEjPhgmzcNh5lP6nA9A4X5pyLfJ0AAOhM3e5fEPLApAdcABB4Tf/e53cTo0BSR4KA5quYCYAnrHnH+j0vehaMCBmgyY6OUgoFgZ4E7vxhtvfGUOBRy6y+PNAjySAkABl/4vjzUoB2pyYKKnuiHo5aFghdHtpptuegUoCgHUG9/4xjgeQpzcmQM1WfD0620voOShAAr4koVNlg1YyIQ4LWxaoICOO0I8mg95/VRfz7kybULdAsrygeNhn/86T4Y8ug8sdg4loBjuNOSRh3WGMgWvxxTe6iANZAEqGfKAhH+jgjJAEkzQB0y4NOZQrFU5UINUX/y8LlTFeWoqUiZv/fJQMKEpkTwUk/JkyGMYW7t2bfKxDAoIKmJ5KAcqjwny5y0bivwSbSrBjVguoFg2gDLBJE/lQG1SapmpojAVLZe3LwDFbw6Lh74eSkOeBYoCgso9VF71589fFRj5JXulBHdvFijYEFRMyjuGvF5ACSoHqqgZspdrG1CCibgrUKyCszglr2RjCvikPDsc45gz1xwKd8aSwBve8IZkDUoujdiBGkdE8vfp6KOPjnNsRqy+HgqgeJ533XXXhVe/+tUJVBSicHrIyy+Kl2i7BuwcCgcjh9N1yCMzQb+kIAI17DlQbcdhePlzAcX4yFoUH8vQ/+WJQGIHaniDtL0GCxQ8iI+uHgqgeIuAf/Tk6yusjKsAhdNzqLYrx+XPr4Fc61BkZumAIQ+ggAjygErB3uXlF8dL9NNA05cMkB1GMq+U0yEKrFy5Mi5epWFyD9UPh8k4J6BwNnI4cNJ1yAOop59+On4QI12AfbyUe6jJAKdXLwUULKSB6vo+VPqXFESfKnCgeqk6/3GMw0XchqFOvUNW1qHEg/gg5v8OeFOFtw24uYsv2DlQUl25sYWJdFu2QUDpWV4HUOmHw9AnIt1DDW96jCKg2gQTPe8FFHww5MlDcXOXeCiAIgNBLs2BGh6kdA0YB8W3aRsE1OLFi8Pq1avjBeNAVWRZjEJgGxcPxQSdbxssWbIk6ZsDVSFQGvIqanJkzXTzUBq95syZE5YtWxYvElbUHaiRqX1wRU0GCtkknzwpsY6lFzYtUPxoAjCR34EazMFQOdLGwUBN3AQO8qZlRl4LlObZLHrjoQBK5R2oEq0r49i4xOaGqloy2ko4pgvAgbKaqSEtAymWYWoQJVOTyJneHKi0RmrcF0iKmw5UN1U5UN20UsMxQSSDABOT1rZtkh+5fciryXqCCYgU2ggT6hsZUMziFfz1lexkApAFCpAUstfSnJxDAaVvG+ixi15dIfZnedmM3A2mbCWbmWtooIAHjySotHjlQGU3OEbAK7XteV23HhYCikK8vsLDYWCynknDngPVTd2bjqFDBc2bNp1tb6owUI8//ng4/PDDO35JQd7Jh7zBQAgmYrwTUI3DVhgoPi39/e9/f7NP+mgIdA/VHw8LVP+c7TpbGCiuKP6N6thjj03+jUrDnXuo/hCMK0z0uhBQFMRN84JU+v/yNOy5h+oNlYDqnaO9Z0YCFBNzQPJXgLOBgNLHdXOgxtWyNfXLgapJ8eParAM1rpatqV8OVE2KH9dmHahxtWxN/XKgalL8uDbrQI2rZWvqlwNVk+LHtVkHalwtW1O/HKiaFD+uzTpQ42rZmvrlQNWk+CY1CwSj2hyoUWmyQfVgVBuqFM2BqlLbFbUlmCpqrqMZB6pDHb4zrAYcqGE16OU7NOBAdajDd4bVgAM1rAa9fIcGHKgOdfjOsBpwoIbVYAnlMUpbNweqYZZr84cyUKUD1SCg+LaBQoPEyiWKA5VLXeVm5mcq2r45UG23YMPkd6AaZpC2i+NAtd2CDZPfgWqYQYYVB4PWuTlQdWp/DNt2oMbQqHV2aWKAqnsoqNPIVbY9MUBVqdRJbsuBmmTrl9D3sQaKzhF8q04DDlR1up6IlsYaqImwYMM66UA1zCBtF8eBarsFGya/A9UwgwwSB4M1eRs7oJqu8CIw6CfQ2vCbMGMBFJ1QKGKwJpfRBdKW/iGnfrcm1y962l9SqPPD91K07UiTARl32awdWgfUpMCkfgpG9pu6tRYoKVmx3GxTFZ1XLv5Zocng9OrPWAA1bjD1AkkXTy9jNuF4K4GSYq3wdSuTOeWoNvUvXV+v4+l8de5bm7RmDtU0xY7qdr5p/SoCZuuAktKJm7CNCqYm9GUUMjhQI9BiU+AeQVeGrqK1QA3dc6+gFA04UKWodXIrbSVQk2uu5vfcgWq+jVolYeuAapV2J1BYB2oCjV5mlx2oMrU7gXU7UBNo9DK7PJFAvfTSS2XqdKLrnjiggGkcPj3YVGpbDRTC59nIz1sBDlQereXL22qg8nX1ldw8zOXlNd/K0cDEASUvVY46vdaJAkowjfJlOEeoUwMTARQAqaMMdw5UJwSj3JOeqbM1b2zmVQAA6UU4pfPW4fmzaWAigBJMium0b+VoYOyBooPpAFi+laOBiQSKTvtWjgbGHqhy1Oa19tLARAPlnqoXFsWPTzRQPpcqDk6vkg5UL8348UIamFigfLgrxMvAQg7UQBV5hjwacKAyasvnW9kU5UBl01Pymb+M2Sc228QCldfiKIrgW38NOFD99ZOcdaASVfRN5AWKqcQUNfLUfvXq1eH4448PdX60tW/vRnDSvVI+JTpQA/TlnmmAglKnJwYo9zQpy5e0O/ZA2Q4yXjtYJZH0/9VafQ96Y1MvO7ZqDkUH9V8udMCBcqCG1oA8ky9ODq3KgRWMvYeSBhwqaaLcOC9QjBqtGfLonB3ibLpctU5u7VmBuuOOO+JUpFVAyawCy4GSRsqL8wLF/LZVHqo81XnN3TSQFahly5bFb0zwnYnWAEWHNXfq1nk/NnoN5AEK79QqDyV1OVTSRPmxgCLutw7VSg9FpxTKV6W3gAbQt9b7BgGlb3W1bshzU5evAV24jAYC6sgjjwxbbLFF2HLLLWM8NTUVXySYM2dOwEMx3JG/NUDRSV015at08loQRDbuBxRwbbXVVmG//fYLy5cvT0aP1gA1eSauv8dZgJo/f35YtWpV8gGTxgPlnqk+sBjudPdmhzwNe9ttt11YuHBhWLlyZQSqsQubcrv1qdJblgYE1KJFi+L8SS9gAtXMmTPDggULIlDke+GFF9ozh1IHPa5WAyxW4nkEFCARtt5667DLLrtED7VixYrw4osvho0bNzYLqLRn0nBXrQq9NasBgML7HHHEEfGujom4gMJDMeQJqA0bNjQLKDoiiNJw2U56upgGpNs8pZmYAxRzqBkzZgTmTQx7QDV79uw45DEpJ0/0UDTCTtP+SaFI5/MoatLyFr1AVe6EE04IO+20U5w3bbvtthEq9plD6S4vPssTUPfcc0+j/uvFgRot8kX1iYdiO+mkkyJMDHPbb799XIOaNm1aOPDAA5O7PNqYkktrClBFOz5a9Y9Xbei0qF4tUDvvvHP0UoDEkMfQN2/evDiHUhsRKFyVAzVeEKk3MrTA0PGssUDEQwHUjjvuGLbZZpsEqH322Sc+eqF+8k5xS9gkoLJ21PNl08CwQAlEAcVSwQ477JBAxbO8JUuWxGWDuLApoO6+++5w3HHHRTfGcxoe/ulh4KmnnhoeeeSROHnP1g3P1RQNCKii8sAHdbz97W+P3ok5FJ4KqJicA9Rtt90W1q9fH6GKHopXDxyooipvdrlhgWLBkhVwnA0QCSjd8c2dOzcOeYxy8S4PAh2oZkNRVDrBpGGrSD0sVhJYh5o+fXqclOOhCAx/m93l0SjrUG30UMjuW28NjAIovBNeCqC4q2NCzsQcoPBWdh2K9qb4g6u66667fA7V2zatPCOghhFecygWNoGJRy/ErEXNmjUrPnrRwiZ547IBBDpQw6i9mWUBathNw+XJJ5+cLBno5To8lYY8YGKki5NygGrjkDesssa5/Ci8E/oBFDaWDZiIMzHHS7EKwBsHvLHZ8U8KUOWT8vFCSzCNwkNpyBNQQMVKOV4KoFg2WLp06ab/y6MAcyg81Lh/wW68sOneGwvTKIDiDg8+tLDJRJw5lIY9VsodqO62aP3RNEyjAooRjDmUlgsEVNpD4ZxqefRCR/Xsp/VWbFAHLFCaTA8rHvNr6mKlHKCYiGsORWz/jSoCRWbmUVU/HFbns3Z4FFdb1rbamk8XKjbFuKPYVA8eivkTj1t408D+X17H11fqACovTCjGgRoFHvnqgA3pnTkUb2syzDF/IgAWHgqgAI/8cWETD1X1G5sSNF8XPXeVGsBGQMLGwiYwAdFAoKCryUA5fFVitKktAUV89NFHJ15JQPEoxnoo8kUPVTVQon6T6J5qqgZggxGs38cyNOTVBlRe5SGob/VogCUD1qHSHopJeXoOFYFCzKo9VD2q8VaLaACYGFHsv6Iz5Nm7vDvvvDPmcaCKaHjCyjDcOVAtNDpXdxOHdkYv5HIP1SKomgoTKnSgWgQSojYZJgtUv7s8n0M1CLo2AIW6HKgGQdNLFGBq+qY1w8YA1fQrsE6DOlAvv5xZ/1KWCM9c0DPWrgE5AWLZr3YPJaFq144LkEsDspvixgBFLyRMrh555to0IIiI2Yhlw9o9VG1a8YYLacDCNDZAqSOFNOKFCmsgDZPsQNxqD6WOFNZMQwvKYE0Ur59srQeqiQofRiYZi7iJ2yD5HKiGWG2QoZogppWRdLfNgeqmlQqPpY3Uy1AVirRZU8yJrJybZTAHHCijjDqS1lBthwn9OVB1UPT/bTYdJgEiObOoyoHKoqUS8shIiktoYiRVSj7iLBv5Wr1skKWTTcyT11B19SErSJLPgZImKo4FVMXN5m6uFUDlFTK3FhpeoC0woca8tiJ/5UNeXiEbzsfYilfETrUAldcCRTqWtw3PPxoNVA5UXjjy5h+NWsqpZZz60ktDlQPVS5BxPo6SJwEmbOhAlUzyJMHUeKDaflVPGkytAKqNUAmkNso+rMOmz5UvGwwrdNPLO1CvfMHO3ykfAakWJl2pw1bLj/G0ZXMPNSJLpUECJgfqqI5PIvr3oXLA1g0ovkIy7EYdbfJQ9FcXUu4hT98p1zeo7Yc5+YnYhx9+OH4ab1iltqW8hQoQRgFU3r6rXWIMi0xVbLYdpdNAwQcfbeWnOZYvX5589mcKAfXhez4drM8G49JU6LTTTpsooASThjoZtgpj2jYEkmCSXDZPGWlBRN3dPBRsEPRLCny0VTJuBhTUWS9FGqD4EWs+4GkbK6MzTahThqsbKLUvearWPe0JFDwULKQdDh6K70MJ/ggUO2vWrAknnnhix6+iq4LFixeHBx98sBa3Xwdg1oAoFP3gxave0kBV3b70QLuHHXZYZAMm5KFwPvxeHj/eqbwJUA888EA4/fTTYyEVoDCFDj300HDfffclharuWNXtSTnEdQGVhglZqt7UJrIccMAByRRIfDDk7b///uH+++9PPFkC1JNPPhnOP//8ZLiTayPec8894+95SMFVd6zq9uin+loHUBo+JAdxFZvaU1tql+kOPxzEnFpcABX7hxxySFi3bl0nUCjtX//6V/jkJz+Z/DiMClKI30f78Y9/HJVch+tXB6uKpVh5iaqHPNqVDDJqFX1Xu2pL+z//+c+T75LDhWAiPuOMM+J0QHJGD8UOoHznO9+Jv4nGMIc7s0RefPHFcVKOctmYoD/zzDNJZXUoQB0fday+1AWU2lc86v51q8+2RZqNGHtfeOGFESI5GUCCEfi46qqrEm9OmQQovpj/61//OsybNy+BiQIKe+21V3jooYcS1yZ6pXQq0zEJFKVq4SXACZMAAAWcSURBVB8pl5g+oVRdSGV1R3q0bZfVVq961V/JQD7mznvvvXcy1IkHYsD67W9/G3Uk20egKEgljJXHHHNM4pkoQBCZn/3sZ2M+4FOjVtFUyqY47rTwj/pGLEPbfo66S2rDtjvqNgbVp76ST3Ig1+c///kwffr06GTEATCR3n333cNzzz0XdaQyCVCC4Oqrrw4zZsyIUOHWVAlpfmL9L3/5S2yQIZJKJIDKq+JBHWjyefVBMX0bNVDojzqpm6C2FNehH9qWLMi3ZMmSsGDBguTOX95JTFxxxRVRbpWhfAKUKmPVk7UF5lDyUMQaM/ntWdakbCWkCWx1KmSURlA/pBf1b1RtNBEm9RXZHn300XDBBRdE76ThTTFA7brrrvE3FqUn6WUzoBjOLr/88ggTEAkquTl+c5YJuhY6VaGNR618CVt1nO4TilbgCibYvpIf/XHDovOKVY6YMgRbP+m6N2RDjmeffTZ87nOfC7Nnz068kxyKvNNll13WtR8dQKmDLFTtu+++yYTckkmaNYmPfOQjcc6FECiRTeWtsqySmqA0K0+WtO0T/RIYAoVjduO8ztk0+WxQvXXpJN0u+8jHr6BfeeWVYdasWcmoBEQKgDV//vywbNmy5A7f9r8rUFT805/+NJlHCSi8FWkqxVOxss4KO8KgRP1YH+W1keacOmDPKU/TY2SXwi0k9It92yfyKQ+xAnkIqktxlX1Pt4k8Vj6GOd4sYRKOnWVrYv14NXb/xje+EV/Dob701gEUlavTGzZsCJdeemmcoDOfglCAomLNqTiGW7z22mvjmpQeHhMTpEQJrfrtftPT8jbEeGLFGtroJ8escXSOq53z7CvY+urqu+QFCOR76qmnwg9+8IP4RARnoSCby5FMmzYtnHnmmfHNE/qG/OktAUog2Xjt2rXhlFNOiSvlagRaaYhYoLF/0EEHhWuuuSbcfPPNgXerHnvssSgoi5/pwFJ9W0Ja9qeffjr2CyMQ/vnPf8ZY/SG/zUPaBtWn/FXGtI3MLA/xMsAtt9wSvv71r4dFixZFG2sxG9sSAAnbEjhHvttvvz1ePIAEK+ktAQpadZWRiX2uKpYJeE+Kxy9ARSMiVg0Tcw7vxez/8MMPD2effXZcYWWuhae75JJLYky6rUF9IE6Hj370o4GgvqbPa7/uvl900UXhrLPOir8utdtuuyXOQU6C2NpXMB188MGbLWIOHPIEEhkVgIr1CF5hgVJRnG6UhoFKMfnYBzaOEShDbEFsW7qb/Byjr+q/7XO3/HX1GVkUZBvJ2k0m5cUz3XrrrdHhiAvFPT1U+gQFBBhjLssEvI1Aw1KclCW4tC/h0vvKR9zWQN/UD/Wz27491pS+Sl7ZBblIW/msbUnjzZjCwIOmQ0qnmWE/GfK6ndQxTR6p8Nvf/naYOXNmFIQhzgokZUtA9u15Hfe43gtKYGEHm8aeGoGw8Re/+MW4JmVBEhO94oFAybVRqe5QVq1aFc4999x4V8AtphUEgBQkrMAitp2w5z296UF81brAXngj7uL22GOPuHTAhF2eSAz0gsgeHwgUmVUhUCk8//zz4Te/+U2chB5xxBFRECbuCKf5E0IqWJgEnMebLr4qdCFb0JbS2IrJOa/48gTkhhtuCOvXr09u0LB9ni03UKJWYLEegcf60Y9+FHiwfN5558V30xcuXBhXVOfOnRsUeF2UNLGH6nWA7nk9iSUe7tzPOeecwBsk119/fXwjd+PGjcmamuxbCVDWYzG/4k6QGIGeeOKJcO+994YVK1bE5XmWHZYuXeqhQTrANtiItUIWsO0cWbZVDFh5tkweigqZP4lWNaaGtI9g5LMxeTiPYFZwXQEeb5pGVKkLOQHZFDvRvmwlWex52btfnBkoVUxs01YQNaTzdj99TOc8rl4D1hakBZI9XlSq/wNxBKSQv1vWbAAAAABJRU5ErkJggg==;" vertex="1" parent="1">
          <mxGeometry x="30" y="100" width="233.95" height="460" as="geometry" />
        </mxCell>
        <mxCell id="ziQ2_6mNSfkVAK9xwGAW-2" value="&lt;font face=&quot;Verdana&quot; style=&quot;font-size: 21px;&quot;&gt;&amp;lt;&lt;/font&gt;" style="text;html=1;align=center;verticalAlign=middle;whiteSpace=wrap;rounded=0;" vertex="1" parent="1">
          <mxGeometry x="48" y="130" width="20" height="30" as="geometry" />
        </mxCell>
        <mxCell id="ziQ2_6mNSfkVAK9xwGAW-3" value="&lt;font face=&quot;Verdana&quot;&gt;&amp;lt;&amp;lt;Title&amp;gt;&amp;gt;&lt;/font&gt;" style="text;html=1;align=center;verticalAlign=middle;whiteSpace=wrap;rounded=0;" vertex="1" parent="1">
          <mxGeometry x="90" y="130" width="90" height="30" as="geometry" />
        </mxCell>
        <mxCell id="ziQ2_6mNSfkVAK9xwGAW-4" value="&lt;font face=&quot;Verdana&quot;&gt;Cancel&lt;/font&gt;" style="text;html=1;align=center;verticalAlign=middle;whiteSpace=wrap;rounded=0;" vertex="1" parent="1">
          <mxGeometry x="190" y="130" width="60" height="30" as="geometry" />
        </mxCell>
        <mxCell id="ziQ2_6mNSfkVAK9xwGAW-5" value="" style="endArrow=none;html=1;rounded=0;exitX=0;exitY=1;exitDx=0;exitDy=0;entryX=1;entryY=1;entryDx=0;entryDy=0;strokeColor=#858585;" edge="1" parent="1">
          <mxGeometry width="50" height="50" relative="1" as="geometry">
            <mxPoint x="46" y="159" as="sourcePoint" />
            <mxPoint x="248" y="159" as="targetPoint" />
          </mxGeometry>
        </mxCell>
        <mxCell id="ziQ2_6mNSfkVAK9xwGAW-6" value="&amp;lt;&amp;lt;fieldName&amp;gt;&amp;gt;" style="text;html=1;align=center;verticalAlign=middle;whiteSpace=wrap;rounded=0;" vertex="1" parent="1">
          <mxGeometry x="48" y="170" width="82" height="30" as="geometry" />
        </mxCell>
        <mxCell id="ziQ2_6mNSfkVAK9xwGAW-7" value="Continue" style="rounded=1;html=1;shadow=0;dashed=0;whiteSpace=wrap;fontSize=10;fillColor=#666666;align=center;strokeColor=#999999;fontColor=#ffffff;" vertex="1" parent="1">
          <mxGeometry x="80" y="510" width="140" height="26.88" as="geometry" />
        </mxCell>
        <mxCell id="ziQ2_6mNSfkVAK9xwGAW-8" value="" style="shape=image;html=1;verticalAlign=top;verticalLabelPosition=bottom;labelBackgroundColor=#ffffff;imageAspect=0;aspect=fixed;image=https://cdn2.iconfinder.com/data/icons/user-interface-ui-1-set/64/symbol-help-information-question-helpdesk-info-128.png" vertex="1" parent="1">
          <mxGeometry x="50" y="233" width="18" height="18" as="geometry" />
        </mxCell>
        <mxCell id="ziQ2_6mNSfkVAK9xwGAW-9" value="&amp;lt;&amp;lt;info-message&amp;gt;&amp;gt;" style="text;html=1;align=center;verticalAlign=middle;whiteSpace=wrap;rounded=0;" vertex="1" parent="1">
          <mxGeometry x="65" y="228" width="114" height="30" as="geometry" />
        </mxCell>
        <mxCell id="ziQ2_6mNSfkVAK9xwGAW-10" value="&amp;lt;&amp;lt;info-message&amp;gt;&amp;gt; - Please enter value greater than 0." style="text;html=1;align=center;verticalAlign=middle;whiteSpace=wrap;rounded=0;" vertex="1" parent="1">
          <mxGeometry x="390" y="110" width="330" height="30" as="geometry" />
        </mxCell>
        <mxCell id="ziQ2_6mNSfkVAK9xwGAW-11" value="" style="rounded=0;whiteSpace=wrap;html=1;" vertex="1" parent="1">
          <mxGeometry x="50" y="200" width="190" height="30" as="geometry" />
        </mxCell>
        <mxCell id="ziQ2_6mNSfkVAK9xwGAW-12" value="&amp;lt;&amp;lt;fieldName&amp;gt;&amp;gt;" style="text;html=1;align=center;verticalAlign=middle;whiteSpace=wrap;rounded=0;" vertex="1" parent="1">
          <mxGeometry x="50.97" y="283" width="82" height="30" as="geometry" />
        </mxCell>
        <mxCell id="ziQ2_6mNSfkVAK9xwGAW-13" value="" style="rounded=0;whiteSpace=wrap;html=1;" vertex="1" parent="1">
          <mxGeometry x="52.97" y="313" width="190" height="30" as="geometry" />
        </mxCell>
        <mxCell id="ziQ2_6mNSfkVAK9xwGAW-14" value="" style="html=1;verticalLabelPosition=bottom;labelBackgroundColor=#ffffff;verticalAlign=top;shadow=0;dashed=0;strokeWidth=2;shape=mxgraph.ios7.misc.down;strokeColor=#0080f0;" vertex="1" parent="1">
          <mxGeometry x="226" y="325" width="12" height="6" as="geometry" />
        </mxCell>
        <mxCell id="ziQ2_6mNSfkVAK9xwGAW-15" value="&amp;lt;&amp;lt;fieldName&amp;gt;&amp;gt;" style="text;html=1;align=center;verticalAlign=middle;whiteSpace=wrap;rounded=0;" vertex="1" parent="1">
          <mxGeometry x="51.97" y="363" width="82" height="30" as="geometry" />
        </mxCell>
        <mxCell id="ziQ2_6mNSfkVAK9xwGAW-16" value="" style="rounded=0;whiteSpace=wrap;html=1;" vertex="1" parent="1">
          <mxGeometry x="51.97" y="393" width="190" height="60" as="geometry" />
        </mxCell>
        <mxCell id="ziQ2_6mNSfkVAK9xwGAW-17" value="&lt;font style=&quot;font-size: 9px;&quot;&gt;0/500&lt;/font&gt;" style="text;html=1;align=center;verticalAlign=middle;whiteSpace=wrap;rounded=0;" vertex="1" parent="1">
          <mxGeometry x="197.97" y="461" width="44" height="10" as="geometry" />
        </mxCell>
        <mxCell id="ziQ2_6mNSfkVAK9xwGAW-18" value="" style="shape=image;html=1;verticalAlign=top;verticalLabelPosition=bottom;labelBackgroundColor=#ffffff;imageAspect=0;aspect=fixed;image=https://cdn0.iconfinder.com/data/icons/Hand_Drawn_Web_Icon_Set/128/bullet_error.png" vertex="1" parent="1">
          <mxGeometry x="51.5" y="254" width="16" height="16" as="geometry" />
        </mxCell>
        <mxCell id="ziQ2_6mNSfkVAK9xwGAW-19" value="&amp;lt;&amp;lt;error-message&amp;gt;&amp;gt;" style="text;html=1;align=center;verticalAlign=middle;whiteSpace=wrap;rounded=0;" vertex="1" parent="1">
          <mxGeometry x="65.5" y="248" width="114" height="30" as="geometry" />
        </mxCell>
        <mxCell id="ziQ2_6mNSfkVAK9xwGAW-20" value="&amp;lt;&amp;lt;error-message&amp;gt;&amp;gt; - This field is mandatory" style="text;html=1;align=center;verticalAlign=middle;whiteSpace=wrap;rounded=0;" vertex="1" parent="1">
          <mxGeometry x="400" y="140" width="260" height="30" as="geometry" />
        </mxCell>
      </root>
    </mxGraphModel>
  </diagram>
</mxfile>
